<mxfile host="app.diagrams.net" agent="Mozilla/5.0 (Windows NT 10.0; Win64; x64) AppleWebKit/537.36 (KHTML, like Gecko) Chrome/127.0.0.0 Safari/537.36" version="24.7.6">
  <diagram name="PÃ¡gina-1" id="-LTKpk0eFx3op2tgP0Ap">
    <mxGraphModel dx="647" dy="754" grid="1" gridSize="10" guides="1" tooltips="1" connect="1" arrows="1" fold="1" page="1" pageScale="1" pageWidth="827" pageHeight="1169" math="0" shadow="0">
      <root>
        <mxCell id="0" />
        <mxCell id="1" parent="0" />
        <mxCell id="CzqnOEumbQIuxmMGgcRZ-1" value="" style="shape=image;verticalLabelPosition=bottom;labelBackgroundColor=default;verticalAlign=top;aspect=fixed;imageAspect=0;image=data:image/png,iVBORw0KGgoAAAANSUhEUgAAAWEAAAGtCAYAAADH1cUYAAAAAXNSR0IArs4c6QAAAARnQU1BAACxjwv8YQUAAAAJcEhZcwAADsMAAA7DAcdvqGQAAIlUSURBVHhe7b0HmFRV1q+/Z7yOM94r6IAgIEFACYogiAgoQR4UFZUgYQhKHhQRBZXkiI6gYADJOIBKkqitoAQlSL7EAYRLRj+CSFAYHMVPPv/nv99F7Z5TRXVXdVd1n7ZZ7/Ochz6nTu2zzw6/vdbau9i/8yxGURRFCYTfh/5VFEVRAkBFWFEUJUBUhBVFUQJERVhRFCVAVIQVRVECREVYURQlQFSEFUVRAuR3Z86c0XXCiqIoAaE/1lAURQkQDUcoiqIEiIqwoihKgKgIK4qiBIiKsKIoSoCoCCuKogSIirCiKEqAqAgriqIESK5dJ/zPf/7T/L//9//M/fffb1asWGH+z//5P+auu+6Sz7766iuzcOFC+TuSIkWKmHvvvdesWrXKvPzyy+att94yN998c+jTnIV7x0aNGpn//b//9wXnvOeyZcvMAw88YL788kvz73//W97t0ksvDaUQDEuXLjW7d+8OnZ3nz3/+s6ldu7a55pprQleylm+++cY8++yzpl69eqZ9+/bmd7/7XeiT4Dhx4oSZN2+e+e///u/Qlf+QJ0+e1HpVche51hL+r//6L7No0SJz9uxZ83//7/8127dvD31izHfffWfeffdd869//St05ULy5ctnKlWqJI0/p+Le8Zdffol6znvOnj3b/PDDD/L+lMOvv/4qnyWL/+//+/9MRsdx8rJkyRLzP//zP3J+7tw5M3fuXNOgQQMRoeywC/70pz+Z66+/3hQqVChHCDBQT9TXt99+G7qSeWjbffr0kcFXydnk6nBE4cKFxXKgw/2v//W/QlfPg8g2b97cPPbYY2HHgw8+KJYi1u/QoUNNiRIlQt/4bcJ7XnnllVIOl1xySVIFB8v6xRdfNJ988kmGhfOGG24wnTt3ljJ/8sknzZQpU8xzzz1nZs6cKRZhVnPVVVdJ3vEMchp4LpHtsnXr1hmyghkcsfajWdVKziJHiPCGDRvMrFmz5ODvZIAA//73vzd/+MMfTN68eeU8I2BBPPHEE+bgwYNh51u3bhVx9n/2888/iyXXpUsX06FDBzN+/Hhz+vRp+ez77783zzzzjIREHIjXCy+8YMaNG5dqmSJi77zzjhk9enSqhXj48GHz5ptvmrZt20raPINnxQtCgwAjvIjx1VdfbS677LLQp4lDiIdwz7BhwzIlxH6oq2rVqpmTJ0+mluvnn38u1tyuXbtM//795W/nvRw7dsyMHDlSyqZ79+7ms88+Sy03B+U3cODA1HvWrl0r4gTOUuQZfg4cOJDmd8Dl6euvvzZjx46V+1weI/GnRRtYv359Uqz8WHmgrT7++ONm27ZtZtCgQWFtFdLLF6JNm8NTXLNmjbS79957Tz5TsobARRjR3bt3r3QgDv5OhhBj/SI8CBAhhYzG0miM+/fvT+3YnNNYBwwYYH766SdTuXJleQZ/09DnzJkjMbs2bdqYLVu2SLwRQWEAKFCgQFgo4Pjx4/KOdHAnKgjzxo0bJSaN1c7fpHXmzBnpCFjoEydONJMmTYo7pIBFz7MRON4/K0IrCOfgwYNl8EhUiKkrv6X+448/mpUrV4rFymBSoUIFKZt9+/aZrl27SvlSNrVq1ZKBgMHP1Rf3IKKXX3653Hv33XeL8Hz66afyubMUeYZj3bp1MohSXnyHcBT1zeDoypz7qRvembIlnkwY4fnnnxfRd5BWp06dzBVXXCFplStXTix9BtJEhThWHmhDHTt2FC+uadOm5tFHH5W+ALHyxUEYC4MIIa5YsaIpVqyYfFfJImyhB4p1P71p06aFHVzLSqwAerVr1/ZSUlI8K4Rhh22Aqfc0aNDAs0Kcel6+fHlv+fLlcu5YsGCBZzuBZ4U1dMXzrDh4thN4M2bMkHNrpXmPPPJIatqcW5H2rJvpWWtFru3cudN76KGH5F+w1oq3dOlS79y5c3IO1pr2rPXiWetazsl/eufZibW+vBYtWni2M3tW4EJXozN8+HCvb9++3tmzZ0NXPPnOhx9+6DVp0sSzQiLXeJ969eqllgnYwdCzouyNGDEirGysuHgNGzb0du/eLed8t3fv3p4dJOUcNm/eLGnxLMqIsuI+sJ6LZwX9gnRXr159QbpVq1b17EAr52DF3GvWrJk3b948OXdp8T7+suC7rVu39qwVH7oSDm2NNme9JG/MmDFhx5IlS0J3xZcH9360W0c8+aJOqJuePXt6VthDdyhZyUW7RA1X7qmnnjItW7YMO3DV0gKL4Nprrw2dGbGOcPluvfVWcfUdWB3Vq1eXCSgs6LJly0oY4ciRI/IdVjFgQWKpYG0DrmTJkiVN0aJF5fy6664zdevWFcsP6852KnPo0CFz6tSpdCcUE8G56LbzZviw4iX5xzqLxyLes2ePWK640xy244ulagersNARfxcsWDB0ZuT9Kas77rgjLM6PRUfZkS5g9eN9sDoEbwVuueUWqYtocfGjR49KiKN+/fph6WJ9ky6rThyk4bcOCfuULl061QonLTwYnud/lhXO1HaQHrQpQgH+wx9OgFh5iEZG8lW8eHEJNylZT+AijNhEEu1asqHTslQKMfYfCGq8MKtP7Pe1114TQfUfLG9DcBEjBLpUqVISq0PoeM6NN94onYFruJf8yzUXNiFdxImYK52L5XXTp0+XTmatGLkn2SA+iE6NGjUyfDCo4AbzrvwbTej8IAi4xk5kCO0gykxKpfddyoqyady4cVh5k+/58+enihAhCkIVhIqsB2OslW6mTp2aKsiREA5iwGQOwQ8hHUIhkSKYHqRFqKlOnTpheaxZs6aEEWKFk4h/T5kyJexo165d6NPMk2i+lKwhcBFmFGapEALAwd9c+y2AWLDioFevXmLdRh5Yd0yE/fGPf5TYGpYxsUreE6FCmLE+uEYs3A0AiDuTdojTK6+8Ynbs2CFxZuKTWQkDALPwkTPzsQ5ii7wPgxoTjsTLY8Ga4AkTJqSKDO/G94jHpgefE+edNm1a1DJnmRtQxq1atTLLly+XNd8PP/ywfMc/GeqHeuQ7kTCIMujlz58/dCU2pEU8mUEhWh5pC0GQU/N1sZMjwhGILsvFOH4rAgwILBY1li0WEy6hW5HARIl/SRgNHHeXCTkGGlw93GzcZgSWtFwoAosF95dJFb7nrGMmonIaCNRHH30kKxWw4OIR4ETA0sZVxjKlnF2ZY0lTbggpwknYgok3zgkhNWvWTCakKGtc8kjcckYXznAQAuI7LKmLF9IiP9SXyx8HeWHdOu0iCHJqvi52LtqYcLLA7eVHElh1dHx+KMFyNCxEfpDgwFKkk3/88cciVIgz52XKlBErEDFnJQUg0Ag17jorKXCxN2/eLLP0OQkEmPfh3Qm/ZLUAA2XG2t63337bLF68WGKZhHgmT54s640RTUhJSZHVAsT4sXwR5C+++ELK2w1qflhlwAoKLOVNmzZJaIJfHI4aNUoMA0Ia8UJaxJZZykhatAl+gMFA9dJLL6UuX0wLYt7Es/0Hlqr7EU48IKy0I+LLzCfQhhLJF6EcQkCUiZJcVIQTBCtryJAhZufOnRLjxWLq16+fuPX+HwKwJAirlp/nEuN1OEuXju4sEaxqlqchwLfddpvcj+gwcZiToBNjVWWXADv4qTETiKxnZYKKMkSQCYUwn8AAR1kRYyfGTNgH8UGUGBwj477AdyjzJk2ayPIuxLphw4ZSX4SbCIHEi0uLEAgDA23i9ttvl8GafJNmejB4+CeLOViC519OFwvaG99DPO+8806Zc8hsvvAsqGvaIxazklx0j7kkQifB4kBUsUQSharBxcbipFPFipdebFAuhH0oFwQWkYkESxnhwA0nNh8PxOQp94x8Jy1oD7QL2kM0CzyrcQLK8/3hhqDzpfwHFWFFUZQAUdNKURQlQFSEFUVRAkRFWFEUJUBUhBVFUQJERVhRFCVAVIQVRVECREVYURQlQFSEFUVRAkRFWFEUJUBUhBVFUQJERVhRFCVAVIQVRVECREVYURQlQFSEFUVRAkRFWFEUJUBUhBVFUQJERVhRFCVAVIQVRVECJNdub8TutGwbf//998vux+xBdtddd4U+Pb8/GVuZz5s3z+zbt0+2n3/ooYdMtWrVom4EmRNh59tly5bJZpZs5Mi+aGwuykahQbJ06VKze/fu0Nl52ESydu3a5pprrgldyVrYXfnZZ5+VTUHbt28fdf+57ObEiRPS3tjJOZI8efKYRo0a6X5vFyG51hJmB9lFixbJJo9sGb59+/bQJ+c3OWT34g4dOsjmhzVq1BCRYMfZV1991fz000+hO3M23333nZk9e7Zsdsn78Z5s755MGKwyOk6TF7b7p5yBjTPnzp1rGjRoICKUHeM+m3Ref/31plChQjlCgIF6or7YZj5R2Oaf9srgq/zGwRLOjaSkpHi9e/f2bGP1/v73v3ujR48OfeJ527Zt8+rWreutXr06dOU8e/fu9Ro2bOitWrUqdCVns2HDBq9169aeFWNvwoQJ3vPPP+/9/PPPoU8Tx4qG97e//c2zAupZMQ5djc3w4cO9vn37enYADF3xPDs4eNOmTZP8Hjt2LHT14mL//v2eHYik3hLl+++/99q2bZuUtJRgueRFS0iPA8M2JGMF0ezYsUOs0CJFioQ+yTxnzpwRl5gQBOlee+21pmzZsvLZ5s2bzddff21sIxaLyXHllVcaK8KmaNGiqVvWY81ZUTZvvPGGmT59uoQASpQoIVvQAxYJRYiLyfOGDBliLr/8cnP06FFjxchUqVJFzh0nT540VtjE7SxWrJhcO3DggLGDhBk/frxZs2aN5KNw4cJiwZEu6ZA2Vv3LL78sFnClSpXknJAK73j8+HHJa82aNSXNZEBYhrwPHDjQ5MuXz9xwww1xWZXr1q2T0AjhB1eOfI+05syZI2XC+33++efyztTNsGHD5Lxq1aqyzbwVavPuu++aUaNGSciFdIoXLx627f/hw4fNiBEjJA3uueqqq6Tt8CxXL7aNm1KlSsn9kXVJuKpkyZISCnC4PJUuXVruIf3169dLHvPnzx+66zzp1Vs0Tp06ZebPny/1xX3RcPW9Z88eKQfyOmnSJCkPLHuuYf1iBdOu+Zt3uummm0zevHljttf02pMSDIGHIxBga4FK4+Hgb64lCuKKcNAh6GT+WBudEjGkw/3yyy+hq7YwbAenIdPQgfzQwd58801Tp04d06VLF+lIjz/+uMSRAXed+KO1RCX8gYjQWREMa/mYnTt3yn0OzrnO54BgderUSTpJ165dTbly5cxzzz0n7jsCwkEnmTVrlohSxYoVU8Wb2G+BAgUk37yfX0ySBTHywYMHi9h88sknCYUSqAu/QP34449m5cqVIpYIWIUKFURsKVvKgjqizGvVqiUiTV1QJ8A93bt3F2Hn3rvvvlsGi08//VQ+d/XCM8DVJc+qXr26pEuYhJDUxo0b5R7gfs55Z8qWeDJhBOtliOg7YtVbZnH1jVgjvrzXgw8+KOlSB7RXBpqOHTuKuDZt2tQ8+uij0tbjaa/ptSclIGylBMrMmTPFTfUfXMtKcK0XLFjg1ahRQ8IS1mrwrEXp2QYeuuM8XGvUqJGEKRy42LjatqF7ttGnuoWvvfaaZzt16C5PPuMeQiEuXf7l3H339OnTnu0o3ocffhjm7hNKcW67e17Pnj0lPBAU1uLyWrRoEVdoIlo4gu/wnk2aNPGsmMk13rNevXqeHZjkHKyl5lmh9KwFGlaeVvQkVGQtODl34SbrOck5WA9H0uJZrl64D6jLyBAU6fOcXr16eVZ85Rr324FU7ndYMfeaNWvmzZs3T87jqbdouHDECy+84I0ZMybsWLJkidzj6pv0eY7DWvry/taylfNo4Yh42mtOaU/Kf7gol6hhjTFJhGXXo0cPcSuxJu655x6xQGzHkvtw93DzCE84sJJtZ5bJJ1xuB66ic72BCT8sONsxUidi+JdzrvM5IQvCJrfcckuYhYg1/fPPP5sjR46ErhixnFnhkQhuMocwTEYP3HJcdyzEeCxi3GmssrFjx8phO75Yqo888kiYK87frExxYLnt2rXL3HHHHWHliaVJPZAuYPUzEUkYwk2kUo6EnPxl6aAucbmx/Bykj8WIZ+KfLCMNv3VImIPwBJYmZKTeorFt2zYJX/iPgwcPhj49z4033ihemYP84C24thmNjLTXZLQnJTkELsLXXXdd6K//EO1aVkDnYlkabh4dAbcSd3Xt2rXyOe7wlClTTJkyZcT1c0fnzp2lQ6bXIQBhJjSxadMmOedfzrkOdAqehRD40yeui0uc7JUOiA4uP6tBMnoQlsANvvrqq1PjrumBUOGyO5EhPIQos5wuve8SDrAWoGncuHFYmZBvBkgnhAxkuNuDBg0y5cuXN9ZKN1OnTk1zZQt1iSAx+PkhjINwWssydCU2idZb//79pV35j3bt2oU+zTyJtlclGAIXYawHZ0Vy8DfXshtii3R8RMKJJvmx7qVMzLDu2H+MHDkyzFKJBp8zOcVECR2Efzl330MQsM4Ql8j0OfxWWzJAcHifxx57LEMHgxPCy/pf60qbypUrh1JMG96TOLkTmQEDBsj3/BNr0eBz6mLatGlRywQPBqibVq1ameXLl0u5Pvzww/KdcePGRRVB7o8GFj1x3YxYhdldb/GSaHtVgiFHhCMQ3ebNm8uR1QJMp6NBPvXUUzLh4geLiEkLN4mH9UWoAgsCq9kdZ8+elc9jCQrceuut4p7SEfiXcweuOBYiAu1Pn87EMyKttiDg3T/66CMpMyy4eAQ4EbC0cZVxz3G/XZlQTliglA11SNiCiTfOWbnQrFkzmSgj3EOoIBLqktUQ/GDCD5YraTMJFy85td6S0V6V7OeiqxVcYaw0VmC89dZbslSNDs2/nBM7c8u8br75ZvkRB0t66PDMpm/dutX07t3bzJgxI65wAe4gMcb3339f/uXcQcevX7++GTp0qFjfzHwTm0TwXnrpJXHLg4TO/PHHH4tFy1KmrBZgYADkV3/8mGbx4sUyMBLLnjx5snnyySfNoUOH5L6UlBRZsYDoUA/UzxdffCGuuBtE/VCXWPNjxoyRe1mqhRVNuk2aNBGxipdE642YN/Fs/8EgTTrxguBjvRNfJpRCuCGR9kooB0+QJW1K9nJRDo1YDEw0scaSuB4TLPyLEHMdsQTcN2LEQKcjVMIEHutcmayKx+JhrW2NGjVkAol//T+JZkBo06aNuNIIDOtwb7/9dvm1HxNodKggQRSw9rJLgB381Jj3Z6kVdYF7jyATCmG+gHJr2bKlTF4RPmLJIfWDKBE+ifazc1eXCBH1gFj369dPlqjx0/ZYMW4/idYbgwf59x8swXPL6eKBEArfQzzvvPNOacuZba94FtQ1a82d1axkH7n2/46IFxo+DZCOG82CcmCR0UDp6FnxfzNgyZAXLJz08nExgSVOyAg3mnKPJpSuXggPuPXdsaCcKW/KmfJOhKDrzQkoz/eLbFa3VyV5XPQirCiKEiQaqVcURQkQFWFFUZQAURFWFEUJEBVhRVGUAFERVhRFCRAVYUVRlABREVYURQkQFWFFUZQAURFWFEUJEBVhRVGUAFERVhRFCRAVYUVRlABREVYURQkQFWFFUZQAURFWFEUJEBVhRVGUAFERVhRFCRAVYUVRlADJtdsbsXstW5yzieOKFStkr6277rpLPmNHWTbeZJNItlj/rcMeZ2xLX758edkmPqe8G+W8cOHC0Nl52Mvvtttuk006s2MLdrbJZ4PQfPnymWeffTbqJqDZDbsgL1iwwBw5ciR0JZwGDRrIhqbKxUGutYTZ+XbRokWy2SFbirOVveO7774zs2fPlk0ks4PPP/9cdg5mm/WsgI0eeVfeOavejbGajTczAnl59913Zct6x44dO2TnX3Zw/umnn0JXsw42wETQrr322rh2x84O2PGZNrl+/frQlcR477335FB+m+TqcEThwoVlB1x24k10V91EwFJFkLLa6eB9L7vsMnnnZFqZiG9KSooZOHBghoUTC7R58+ayFT3H0KFDZZv2tWvXireS1bADc/fu3WXr95wiwo5bbrkltVz8R0at4DNnzsih/Da55EVL6O/A2LBhg1m9erVYSXTyIkWKhD7JPDTK3bt3SwiCdLGEypYtK59988034rITqrjqqqvkWjQOHz5sxo8fb8aOHStuNSJavHjxVEHHwuXz0qVLm+nTp5sRI0aIdUP+8+fPLxbq8OHDzQcffCB5WblypeSrUqVK8v1jx46JpThq1ChJn3RJ34kFFiTVg+WEiA8ZMsTMmTNHrFye6d/KfPPmzeLi582bV6z+e++9VwafZMBW84Q2PvzwQ0mbcEI826inVc5XXHGFlAehgmrVqqWWI3U0bNgwOa9ataoIqL+MSMuVkX+Q+f7778USpPwjyxHvgzrYs2dParnDgQMHzOjRo+W5pEv+qDe3rX5adUseqVs//rTWrFkjISEGxGhb9APb5C9fvlxCZLx/WsTKg2sfS5YsMbt27TKLFy+Wsi1VqpR8P718uXKhHvAW8UxoY/4yUrKHwC1hBHjv3r3SMDn4m2uJggBhhdHg8uTJI9ZhRti4caNp06aNiGaXLl3Mgw8+aCZOnGgmTZokoghYuFu3bjWvv/66xBq7du1qChQoINYMnQUxQAzr168vAkk6d9xxh3x337595q9//av5+uuv5fo999xjxo0bZwYPHmx+/vlnuQcLFCGbN2+emTFjhmncuLF5+OGHzSeffGJeffXVVKsUQUIksYJ5Jn8nO95Kp+eZx48fl/dNJJRAnfjzRzkyQCEoCEWFChXkPSgjyvTkyZNSRrVq1RKRRlRoK8BnvXv3lvgq9zRr1sy8//77ItzUEwMn4uK3FNetW2c6dOggeSB9hGfAgAHmnXfeCatb2gD1QZ22b99eBr/nn39eBmcHaXXq1EnEj7TKlStnnnvuOTN37tyEPZ9YeaCNt2jRQoSco1u3bjIvALHy5cpl1qxZUlYVK1Y0xYoVk+8q2YytjECZOXOmN23atLCDa1mJFXmvQYMG3v79+0NXLsRaEd7SpUu9c+fOha543ooVK7y2bdt61vKSc+uie9bikn8d3G8tFs8Kgnf69Gm5xud9+/b1rMUh59YK8azgeH369PFsR5NrYAcgr2HDht6qVavknOfwvI4dO3pWbOQacB/5X7BgQehK9nHq1CnPioDk35/3aKRVzi7/n332mZxTPvXq1fN27twp5+DKiLL014EVFykja8HJOc9o3bq1ZwVFzoH0rWcg36PMKXtr9cln1Al1E5mu9cTC0iVP1hr3tmzZIudgB0TPirxnB0U5d2lZD8GzA6ZcA75LnqwVH7oSjstTu3btvDFjxoQdU6dO9ayHIPfFkwfg3dz7QTz5cnno2bOnZ4U9dIcSBIFbwjkV4nJ169YViwyrC5f30KFDxopQ2ETT7bffbqpXrx46Oz8RhOWLG3306NHQ1XBIwwqOue+++8zll18eumrEhcbV37RpU+jKeQipYNU7XN62bduWarllFNx3JsgyehBfxZLFQovHInbWFiEdDr6DxXrrrbeamjVrhu46H88uWLBg6Ox8GeFi4zlQpg4suqJFi0p4ASg/rEK8A1cvuO/EW/3fc1An1A115P8c65t0WVHjIHzltw4JWZC2s8JJCwubZ/lDD4RS8GbSWv3gYCKVMIH/+PLLL1PTh1h5iEZG8kWbIyyiBEfgIhxtEiKjExNZgbUmRDSIZ9LoEULicjR+/yoBwhCRy544J+ZGzDMauJkIRmTMljgrMd1vv/02NSQBfqEGYp3ES8mjteZCVzMGHbtGjRqZOhAGQh8lSpSIueSLdyVe7UTm4MGD5umnnzbWCrvgvfzwPd6PEAzPcQdiOX/+/FQRQpT79esnIQhcauqLemPQjAZ1Qt1E5puyJxRC/uKFtJhgrFOnTlgeGVwYpGINkI0aNTJTpkwJOwg90AYSIdF8KdlL4CLM6Hz99deLVcLB31wLEoSN+Cyi8corr8jEnnUJJW4YCYJsPYrQ2Xk4R6Q4okEsMpqVxvdIDzHwT3xFdhp3HyKe2Rl/BpXIWfl4DtawshyOdcjWtY36Hn4Qe4TFiczIkSPlu+kJMFBG3DNt2jRZRRF5kA/A0rv77rtFmImDPvnkkzLpRb1Fs9Ipr/TKPnLSLT1Ii3gyz46WRwaFIMip+VKikyPCEYguy5g4ghZgwJLALW3atKk0WDepxyRQJLjFhCn8MLmIpcpkSjSYOGOwQdj9An7ixAmxVG644YYwcWVFAistHLiahDOYBY9nlUKyYCa9Z8+eIuDxCHAiUEa4ylimDEq44RwMPNSPezYTVdyDGBPOYIKTPDJw4lFE4pYtunCGgzqkPij7eCEt8kO7cPnjIG+sOMjsAJkoOTVfSnQu2pgwjZGYKovm/Qcz8sTIEEksK1YD4PriUjN7HgkiyOwyy4GwoLkPKxrrzIkwnZ50WQmBm805qyZYL8uyIvKCYEyYMEE6j1tB4SCfKSkpYtkRxuB5xFpZLZBdIMB9+vQRFzqrBRhcGb399ttSRoRnePfJkyeLtesGPuqsR48eYuFRT8SSWdpVsmTJsDi6gzqhbqgjYu+EJvhlH0vgMADc6oJ4IC1iy6x9Ji0GSuoRa/+ll16ScEp6ELuNbH8caYVS0oKyYuBnMKKcEskXxgflM2/evNAVJau5aEUYQXzqqadMy5Ytww5cOISV5WkIMBNlxIQRAz6PBGsU95o4J8LN0icacatWrcQ6A5YPEUfFhcY1p+PXq1dPlgyx7Iu4JhN8LEdjmVakS9ykSROZfEIksMxZwsd9rBfNDrDW6cQs/8oOAXZQRgg/vzak/Hh3BJmfIbt5AyYo8Vgodzchhxg988wzUWOr1Al1S5l27NjRlClTxjRs2ND8+c9/Nr169YoZJvHj0mLZIAMDVjT1yIQb+SbN9GCOIbL9cTCgZwQmeBFaBmUMhUTyxUCGoZDRgUDJPLn2/45IBhQNri+xQtZbRq695f9r4AcMLHrncxovcWBCEdGggZMmIuYE2jV6rmHR+MGqw8pDMLBAuY/7o+UlN0P5E3bgnfFSXNn5wQuhrphwiyzHtHDfwftIq87iJb16zC4QYsqIcEM87UvJGVy0lnA80JARPCyqWKJHI+e+9Doz92Bl+0XEfS+eDsI98eQlt8H78t7URTQBBsqVuGdGhMZ9J1EBhozUY1bBAEQ+Mtu+lGBQEVYURQkQDUckAJMgxHezKjzg3PD0QhyKovy2URFWFEUJEA1HKIqiBIiKsKIoSoCoCCuKogSIirCiKEqAqAgriqIEiIqwoihKgKgIK4qiBIiKsKIoSoCoCCuKogSIirCiKEqAqAgriqIEiIqwoihKgKgIK4qiBIiKsKIoSoCoCCuKogRIrv3/hNl9l51j77//frNixQrZm4yt2oHddRcuXCh/O9ga5tZbbzU33nijbAnzWyC9dwwKtu1np17+s3sHe57dfPPNpnLlylLO2QE7WZMPNgnNrg1RY7F06VLZtToabMTJJqXKxUeutYTZWXbRokWynTzbiG/fvj30iZHt4tk2ni3UHTt27DCPPvqobAnO1vLJhh2A2emWf5NFeu+YLH799dfQX/HBTiCzZ8+W3ZkdvDM7GbMj9cmTJ0NXs5aCBQvK7tcZ2T05q6F+lixZIptvJkpWtCclGHJ1OKJw4cKywSG76UZat/ny5TPNmzc3jz32mBxDhw41M2bMMBs3bjSrV68O3ZU86HhHjhxJSgf0k947JsqxY8fMU089ZdavXx+6Ej8PPPBAatkOHDhQhJlt1BGh7KB+/fry3Fjbzmc3bD/fuXPn1LJxR0at4KxqT0r2c8mLltDfgbFhwwYRPqxRrNAiRYqEPsk8Z86cEdcP95x0cUnLli0rn33zzTdm2bJl4saz264Dd37Pnj2yd1y1atXkGn/Pnz9f3NpZs2aJMJUqVUpED7CmKUKiOlx3fPnll2bYsGGmatWqZuXKlea1116TtDdv3mw2bdok19k3zp9+SkqKOX78uKTj9pRz6ePe8z5DhgwR64570nvHZIC4sy08zyxTpkxc9cI2/bwPeWKAcFC2hw8fNgcOHDA1a9aUbdjTei+EZdWqVeaNN94w06dPl/BRiRIlZC8/B/vvYf1TrtxDWKZkyZImT5488vnnn39uxo8fn1rOEG9dYv3jLZGnOXPmyLb4iKd/kItVb9FYt26dpFW7du00B8x48sC7ZbY90S5ffvllqcv333/fTJs2zdx0002yI7MSDIFbwgjw3r17peNx8DfXEoWOhbXL9t90zHi2/EZI6dwOBoRBgwaZiRMnmgcffNC0b9/e7Ny503Tp0sV8/fXXcg/3I+qIih/Ehet8Xr58edOqVStTtGhR+bdFixaSP5c+naxRo0amTZs2ZsuWLebZZ59Nddtd+hMmTJDQA50tf/788llm3jEjkC7v3b17d/PCCy9kyiJ2kJZ/M9S03os2gHgiInXq1JGyRtgff/xxs2/fPvku9US8F0u3Vq1aplu3bubKK6+UfCLYQH248oeM1OXMmTNlzgBPiQFjzJgxIlhu+iSeesss8eQhkfZEu6QeBwwYIPcTp3eDkBIQtlIDxTY2z47GYQfXshIr8l6DBg28/fv3h654nm38nrXGPWuleNYKk2sLFiyQ++zAIOdgO7fXp08fz4qEZwXDsy6217ZtW89aHaE7zsMzuM7nwLNspwh7JulbMfCstRK64nm2s3gdO3b0ZsyYIecufWv5eNYqlWvZDWXzxRdfeE2aNPGsNRe6Gh3ejzLj/f3wjryrFV05T+u9rGh4VkDCyvzs2bNe3759U8vcnVuxCd1x/p7ly5d7J06ckHPqw1/+GalLa4l6VqzkHt59ypQpkvfTp0/LtXjqLRrDhw/3mjZt6o0YMcKzopp62IEhNa1485DZ9kS9WBGXslJyBhftEjU3sWEbvBwNGzaUWN3DDz8sVhnu4LZt20zdunXNddddF/qWEZcZVxsLg3BAZnHpsyLj6quvDl09H6uuXr26TOJgtTiYZEo05ss7P/HEE6nvHO/xyCOPiHVFSIAyi8cixlIdO3asHFZ0TKdOnWSVxEMPPRS64zyR70VYBfcYK8+BK009UCa45aSD5f/pp59KGALrmXuwip2X4CejdVmxYsXUVRxY8IR4eAZWakbrLZKjR49KWGLNmjWpByEFJlf9pJeHaGQkX8WKFcsxK0aUHBCO8HcKR7RryYaGiiuHK2stBWmsCE7Xrl2l8RMLtVaHdG46vR/iyCzFwk3OLC59YnuIm/8gZkensoNk6O7kgNuJ+1mjRo0MHy5cQCzR38nTAkFwIoMA4DLzrtFE0g9u85QpUyQG7S8TBkgnQpdeeqmEEVgB0axZMxEe6nHt2rVRRSqZdZlovREPJgTDO7pj1KhRIoyJEER7UpJD4CJM53bWEAd/cy2rQZBYu8r6TGKPCLB1uVPjjlgfkR3WQUdnIiORGKxLn6VbrPeNPKy7bS677LLQ3ckB8ezQocMFM/OxDgSQDrxr1y7z97//Pa5Bsn///qki849//EMGPP8kaFrQBlq3bi3WdmSZjBw5MnUCiVUPr776qkxK8Qwmn7DyEeJIklmXQdRbPOTUfCmxyRHhCESXCQiO7BDgaOCy8UONDz74wPzyyy/SYMuVKyfusX89MRYFM/fMxNN5sa5YBcAkh5/9+/eH/oqOS59JISw7BIqDCSbW2tKh6FhBQ1kgoosXL5ZZ+6z2UipUqCArKBBHVyYczl1ncg+LmMkryony5zsMFixLQ5Qjibcu4yGn1ttvpT0pF3LRxoQjYQkV8UqW9xAjBGKM7ocduKvMuM+dO1eWCHEvAsDB0iGsseXLl8t9/Eu80g+dBCEhhokQIDKkzw8ucE/5HoLHL98QlOxaT5se5Ie8YV3GawEnCt4JVu7w4cNFaHGzt27danr37i3ruBFO6sGtdKAsEWXuIbaKEEUjnrqMl0TqjXALVj7L6/wHa34zQjLbE+WM9/H2229L+SrZi4qwj9tuu01idiwPYgKIyQvWabK2ksX0WMo0VFw77gWsiyZNmsi6YpZR3XHHHbIGmfCGn2uuuUZc8ueff16WDjFJ5tJnqRTpI+b9+vWTDnHvvfeGvhkcWPd05OwSYMAixeIGLFvCU/ySsUqVKlKmWHTc88wzz0i9MIFVunRpccPbtWsnk2/RiKcu4yWRevvss89korNly5ZhR0aXZSazPSHgTNoh3PytZC+59v+OSCYUEaJMA+UHA/71rn6wyCC9VQykgXWHy+hPB8uM7xObTO/7FxP88ABrDy+F8orEXy/xllu8dRkvQdebtqffPirCiqIoAaLhCEVRlABREVYURQkQFWFFUZQAURFWFEUJEBVhRVGUAFERVhRFCRAVYUVRlABREVYURQkQFWFFUZQAURFWFEUJEBVhRVGUAFERVhRFCRAVYUVRlABREVYURQkQFWFFUS6ADUKV7EFFWFEUJUBUhBVFUQJERVhRFCVAcu32Rv/85z9lJ9r7779fdpxln7K77ror9On5vbnYVXnevHlm3759pmDBgrLrLht2/uEPfwjdlXHY5PPll182b731luwcnFm++uorSeuBBx4wV199dejqhfjvYxNL9k9jU8doe7JlJ0uXLjW7d+8OnZ2HXZTZSJVNKrMDdhF+9tlnTb169Uz79u1zxJbvJ06ckDbHxpqR5MmTxzRq1Ej2hQsaYsJsn69kPbnWEmbr70WLFslGkWwpvn379tAn5zfkZKfdDh06yO69NWrUEIHo06ePefXVV2WX4cySL18+U6lSJelQwHbkpItAZgS2Z589e7b54YcfQlei47+Pd+Rdk71tOQNWRsdq8sI2627zUzajZIv5Bg0aiAhlx9j/pz/9SXZrLlSoUI4QYKCeqK9vv/02dCXzZLZtKTmLXB2OKFy4sFgVdEb/jrNsCU5HGDNmjGwZ/thjj8nW4JMmTTIbN24UKzqzYP0OHTo0dXYZAcMii2b5JAuE/8orr5R3ZVBJpuBgWbMF/SeffJJh4WTL9c6dO0v5Pvnkk2bKlCnmueeeMzNnzhSLMKu56qqrJO+xtqEPAjwXysV/sDV9Rqzg7GhbStZziW2kL4b+DowNGzaY1atXmx07dogVWqRIkdAnmefMmTPiDhOCIN1rr73WlC1bVj7bvHmzuFpt27YVgXYgZA0bNjRFixY1v/zyi3nzzTfN4cOHzU033SSfY82NHj3aLF682Nx6662pLv+CBQvM+++/b6pWrSrPJBzBdw4ePCiWCs/HWlm1apVcz5s3r1iInL/xxhtm+vTpEjopWbJkqgVN5yLMgCv92WefSXiD5yK4lI8TWix9wiq85/HjxyXdmjVrymfJgNDM5ZdfbgYOHCjPRljjEfl169aJgBN+cAMg3yOtOXPmmCpVqsgg+fnnn5vx48dL/QwbNkzOKcc//vGP5tixY+bdd981o0aNkrIgneLFi4dt7U79jBgxQtLgHoTXlQ+WIs2bwaNUqVJyf6xyB5en0qVLyz2kv379eslj/vz5Q3ed58CBA9ImuH/NmjXShnivtMro1KlTZv78+VJf3BcNRHX48OFmz549Ug7kFQOB8sCy5xrtKa22Benly6VPW6X90F7xqPDgHLS3p556KnSmZCWBW8II8N69e6VzcPA31xIFcUU0aHR0ML+FQYc8efKkdDbE1kHnphHTyBGLYsWKSef78ccf5XNcyU2bNkmDd+4kwoz1TDiD79DA9+/fL++CGHTs2FGs4qZNm5pHH31U8sRndA4Eonr16qZLly6STps2bSQtBx2EgeDnn3+WmCZ569mzZ5j7yUBQoEAByTvv6BeTZEGcfPDgwdKpM2MR+6E+/AJF2a5cuVLKAqGoUKGCiC1x+q5du0o9UT61atUSkabcKD/gnu7du0u5c+/dd98tg8Wnn34qnztL0dVfWuVOWMpf7tzPOe9M2VL21D1eE6LvYKDp1KmTueKKK+T55cqVE0ufsEsiZcR3EUXEGvHlvR588EFJlzqgzabVtiBWvlz6s2bNkkGuYsWK0taVgLAVEijWNfWmTZsWdnAtK7Gd07PWq1ejRg2vbt26nrU0PGtNerZxh+44z7Zt27xGjRp5VlRTz5944gnPCqFnrVO5ZsXYa9GihbdixQo5twOI16BBg9TvfP/99561uOW6g2fxXGv9h654nhUDz1on8u5WLOR+a/VJPh3Wuvd69Ojh2Y4YupK9WPGXd7WdWcowPXiXvn37enYgCV05X+4ffvih16RJE8+KmVxLSUnxrLXv7dy5U87BDmSeFUrPWqBSLg4rLp71VDxrwck53+3du7dnvSc5B+vlSFo8y5U990Fa5c5zevXq5VnxlWvcb61xud9hxdxr1qyZN2/ePDk/ffq0Z0Vc3sdfFny3devWnrVaQ1fCoV3QPl544QVvzJgxYceSJUvkHsqMsiN9nuOwlr68/1dffSXn0dpWPPly6dOO7eASuiMc2p6SPVyUS9SwxJggwqqzoiauG5bEPffcI9aHbbxyH9YBlhCWLWCB4o7jSu/atUssikOHDkl6XI8XXEhcPywQB9YfcdPmzZtLXBewYPzpYtngOjtLMDO4yRxCMRk9cMt5PhZiPBYx7jSW59ixY+WwHV8s1UceeSTMFedvVqc4cNkp3zvuuCM1lAGUB6Ei0gWsfiYiCUO4ydRbbrlFwk5+a9uRVrnXqVNH6tg/WUYafuuQMAfhCVf2R48elZAXz/M/i1AKnsuRI0dCV6JjB3QJE/gPwld+brzxxtTwApAfvAXXPqORkXwR2mHVkBIsgYvwddddF/rrP0S7lhXQsViWhotHJ8B1w1Vdu3atfE4nJ87GRB0uKjP+dGJcZsImxDy3bt1qypcvL+GIeMHFJuThxDY7QXTIPytCMnoQlsANZsmcPy6dFggCrrETGUJEiDKTUul9l7K2Fp1p3LixuNvuIN8Mkk4ICVEQUhg0aJDUgbXSzdSpU9Nc3ZJWuRPGQaCsZRm6EhvqnnaCgPvzSDyeUEasFSr9+/eXiUr/0a5du9CnmSfRfCnZT+AizAjNZAPiwMHfXMtuiCvS6REI4r6AUFSuXFmsMiwlhAFLEAFCCJjYwLoivxlZl+u37rIbBIdZ+MiZ+VgHAxTvzfpf60pLucSCSbkJEyakisyAAQPke/6JtWjwOfUxbdo0GQAjD7wYoBxbtWplli9fLnH6hx9+WL4zbty4qGKTVrlj0eNlZMQqRMgZkBkUouXRb21nJzk1X0ra5IhwBCKGG86R1QJMhxs5cqTM/DLZ4gdriAkL/yQeLihijBWB5czkBy4i1gWNGtcvI6EIwKJjVj5ymRauNZOSOc1awf396KOPpNyw4OIR4ETA0sZVxj3H/abcObCksfQQU+qRsAUTb5yzcqFZs2YyIcVqEeolkrTKnbolbUJP8UIIhe9gXbv8cZAXJlSD8HIgp+ZLSZuLLiaMoGKhIXYsw2GpGp2Zfzkn5OBf4kWYAcH94IMPZA2wc2eJueEGIxLp/QKMxo+FRQwQdxcLmnSwKlmn7NZ5Ys2xVIi4ZE7qKAjwxx9/LBYt+ctqAQYGQdb28oMaluUxOBLLnjx5ssTNicNDSkqKrFggps/ARVl+8cUXpkyZMmEDqSOtcifdJk2aiFjFC4Jdv359WROO58SKBeqOgeqll14Sryk98K4YdP0Hg7p/tU4sorWtRPJFKAdvkF9hKtnHRSfCgEXEJBMTbcTOEFT+RYi57tYTA2GG22+/XeKUfleOZW5MFCFKuM5pgZvbsmVLaeB33nmnPBNLmtgzwlGjRg0RDX4swlKpnPbDAjoxVlV2CbCD9dFMILJEj/qg7BFkQiHMGTCYUq5MXhFCoj4QH0SJ8Em0n56nV+78vD29OHUk3MuSQkIgDAx4Q7QTfqlJvmPNETB4kH//wRI82lm8RGtbmc0XngV1zVpzLGYl+8i1/3dEvNDoaXx02mjWU7JwjRzrxW/p8nwsGJ7NZ0o4WOKEjYgTI7DRhBJLGeHADcdTiYdkljvpkB7pZGUbSou02lYi+cL70/87Inu46EVYUZQLURHOPi7KcISiKEpOQUVYURQlQDQcoSiKEiBqCSuKogSIirCiKEqAqAgriqIEiIqwoihKgKgIK4qiBIiKsKIoSoCoCCuKogSIirCiKEqAqAgriqIEiIqwoihKgKgIK4qiBIiKsKIoSoCoCCuKogSIirCiKEqAqAgriqIESK79/4TZuZbtzdnAccWKFbI/2V133WWOHj1q5s+fLxs9slFnJBQHG0qyZTrf5f6FCxeGPj0P+9Hddtttsskke58B26jPmzdPdrtt0KDBBfuWsYPtsmXLZFNKtnQ/d+6cWbBggeSLjUf5bt26dWUTyyBx78FOxA72LWOnYjb6jLaBZlbA5pXkg40+2c4+J7B06VKze/fu0Fk4bKbJhrGKklFyrSXM7rKLFi2SDSDZTpyt7IFtzffv3y8CyK67kbD9PQLAJolsGvndd9+Zd999V7Zcd+zYscO0bdtWdiD+6aef5BqbUc6ePdv07t3brFmzRq75IR0+5z7g2S5f7rvck0wYUNgoMyO4vLBNuuPgwYOmV69e5umnn5adl7ODggULmuuvvz7dnayzG+pqyZIl0jYS5fPPP5cBxj/YKRcnuTocUbhwYdllll14nWWKsNaqVcusX78+qqDs3LnTHDt2LMyqyZcvn2nevLlspc4xdOhQEeq1a9eKxe0Ha/a9994TizIeihQpYi677DLJp3+n3GTAYPDMM89kSjix2N37Dhw4UIT5+++/FxHKDti+nufG2jo+u2EL+c6dO6eWjTsyagWzCzKDrm5so+QIEd6wYYOZNWuWHPydDBBgQgW4z3nz5pVzB2EEtknftm1b6Mp5sE7XrVsnbnexYsVCV6NTqlQpU6lSJbNp06bQlfM0atRIRP/DDz+Mamk7EF5CFwgv1l6hQoUkn8kEYUDcBwwYkLAFS/6qVatmtm7dKmX35ZdfmieeeELOGZT4G4sZ+Hzu3LmmS5cupkOHDmb8+PHm9OnT8pmDLdrxRrgHr2Ls2LEi8g4sxT59+oR5IAyOI0eOlPv5Ht8nHYfL0549e8y0adPk2d27d5c6jRQ7f1rc89lnnyXFwo2VByxfLGDKZPny5aZTp04yaDti5cuVy65du0z//v0vKCPlt0fgIozo7t27VxoaB38nQ4gRQizY3/3udyZPnjwiRg4EmZgwlqK/E2OZbN68WSxlLOb0IF0XD/Zz5ZVXmtatW5sPPvjgAivZD9/nXvJFOsSJI+PIiYK49+3bV8Q+USGOfF/EBG+CdAnJMHBR5vw9aNAgM2fOHBmQ2rRpY7Zs2WKeffbZ1OdTzxMnTjSTJk2Se7p27SqfkVcnxFiK33zzTWo4Zd++feavf/2rbMOOAN9zzz1m3LhxZvDgwSL6QJ4IGQwZMkSutW/fXga2nj17ijg6SMs9k7So72HDhokwJirEsfJAHd97771i6WMM8Pw77rhDvhtPviiXlStXmhdffFHaD/MJyW43SjZjR+dAmTlzpmcthrCDa1nNqlWrvCZNmnjWegtd8bwVK1bItcOHD4eueJ4dELwGDRp4+/fvD105jx0s5Lq1VOSczznn/nPnznmvvfaa9/jjj3vWApTP00onOzh79qw3YsQIr1u3bt6JEydCV6Pjfw8/x48f96ygeBMmTJBzPi9fvrxnrTk5d1jrVO7jfocVFa9jx47ejBkz5NwKrWctPc9ah3IOXKP8z5w5I+cpKSlyD9etsHlWdDxr9XlWhORzoA4aNmwodQnkqXjx4pIHB+n16NHDGz16tJy7tCgP6slBXkhr9+7doSsXMnz4cK9p06by3TFjxqQedkBJfd948gC8nx10pG4g3nzxvXr16nk7d+6Uc+W3T66OCacHKyNYmeDCCYQOiPHicl9zzTVyzYGFTKgEl5nj9ddfF0vl1ltvNTVr1gzd9R+wTP7yl7+Ia8lKDFvOoU8SA1cUNzWjBzFMVnnwHvFaxKxMcO9rhUHcZkInDz30UOgOIyEb/8oFypAQD+WCZe/AI6levbpYiFiKl156qXgnWMuEMLB2mTC98847zRVXXBH61n9gspRY/X333Rc2UWfFTlap+ENC1CtxWwfplSxZMtWSJC1ceaxPvwXJ94oWLSphhPSgHAkt4EW5A++JCWBHrDxEIyP5wpNj4lLJHQQuwtGWZGXHMi3X6a0VJS40qwFwrxHVyAkyXEA6mut0CAcrBXCf05q9R5weffRR8/7778tqjGSQP39+CaNk5mCJGXktUaJEmnn2g5i690U8W7RoYax1L3lIC5bdEfvlPp7jP1hJgkgzIDH4sdqCWCYuN/XAqhKENtqARflzL+EOP4g5rj5150ISsSAt8ti4ceOw/OHWM2DGCkfUrl3bWG/ATJkyJfUYNWpUzDmEWCSaL+W3S+AiXLVqVVmKxOjPwd9cy2qIcWL1IpB0YtYUEwfm+ZHQwYg9uk7HxAmrB2KJmXUbzU033STf8VtKmYWJtshZ+XgOBJQBpmzZsqZbt25xiTCTPu59//GPf5hWrVrJwJUelCkDGAJLPDzyYNBiQhIYaN9++22Jk1o3XwSViSjmBCIhFu23Dh0INlY0sVG+Hw+kxfszaRYtjw0aNAjdmb3k1HwpWU+OCEcguiwB48gOAXbgIiIGrqHXqVMnzI1OFDpVx44dxYrmByNBwACDlcnqhngFOLMgsLjPTJ4hiog2ByLJ+mMEGqHGYsabwHrFVSd8wcQVYSAGw0ioEwZHJvj8ljLLADdu3Ciuf6T3khakRRiD55Mvl0es7H//+99RxT47yKn5UrKeizYmDKxMwBpmORVxRQYARCKZsJQNK5Ila9ndkRDgv/3tbyJSWS3ADsIL/FAGl504J6tPGICwyN0aY2LlrJZISUmRUBCiTFjo+PHjMjBGQj2xooC12fyaEa+Cd+MZiJRbXRAPLi2scNJiICDUMXnyZPPkk0+aQ4cOhe6MDvF0vAp+aOM/jhw5ErojPsgHqyEYsAhFJJIvVpGwIofvprcsUsmZXNQiDAgvnZ/Jo2gCkCiIOhNK/Kw1u+N6WIpVqlTJNgEGYuEszyK+S/iEAaBfv34iEoiMu4f1rTNmzDDly5cXK3fMmDHywxJioNEgtPPcc8+ZV199VaxtyhPxYalWenHqaJAWz2e9LiGaihUrivC98MILMecjWLf7yCOPmJYtW4YdGzK4rJLBn2cTZiDUxYRlZvNFSIbvM+hl9BeSSvDk2v87QgkeLDwGHqy8aF4AguF+xk1Ywr8OOS1Ij3RJj3QTwT2f5zJZmGwvKB54H7og7+OenxPypWQfKsKKoigBctGHIxRFUYJERVhRFCVAVIQVRVECREVYURQlQFSEFUVRAkRFWFEUJUBUhBVFUQJERVhRFCVAVIQVRVECREVYURQlQFSEFUVRAkRFWFEUJUBUhBVFUQJERVhRFCVAVIQVRVECREVYURQlQFSEFUVRAkRFWFEUJUBy7fZGbGHP9un333+/7PbLXl133XVX6NPzsBPwunXrzMcffyw7AJcuXVrur1SpUq7ZYpz92D766CPZUJOt1JctW2YeeOCBpG7tnxmWLl1qdu/eHTo7z5///GdTu3Zt2fo+O2CjUHZ9ZoPN9u3b54i93Nicdd68ebJxZyR58uQxjRo1SnhvPSVnkWstYbZdX7RokWyPzpbk27dvD31ynu+//152tu3evbv5wx/+YGrUqCENv1OnTmbQoEGyFXtugIGGcqA8vvvuOzN79uzUzTWTBeN4Rnf5pT7YAt/tQM2293PnzpXdhxGh7LAN2C6fnZ4LFSqUYzbTpG6oI7b0TwbvvfeeHErOJVeHIwoXLixWA53Nb9kiTGPHjjWnT582n376qXnllVfMY489Jv/OnDlTrGi2Y89NTgJlcdlll0l5xLOrcbwgvikpKWbgwIEZHrjYDr9z585S9k8++aSZMmWKbGtPHWARZjVXXXWVbJnvtuLPSeCtUC7+o3Xr1hm2gs+cOSOHknO5xDbCF0N/B8aGDRvM6tWrzY4dO6QjFylSJPRJ5qHh4e4SgiDda6+91pQtW1Y+I0wxZswYsYTLlSsn1xz58+c3f/zjH83ChQvFNUbAEe3Fixeb4cOHm+nTp8v3SY9ODP/617+kM2NJ88whQ4aY5cuXm6JFi8pW7ojL0KFDJc18+fLJd/2W14EDB8zo0aPN+PHjzZo1ayRsgGi6ez7//HP5jO8NGzZMzqtWrSr5PHz4sHzGoEL6DBzFixcPG3Q2b95sbrzxRpM3b16xQBEd3isZkEdCGx9++KGkfdttt5lLL7009GnaEAb697//LWXs8kpal19+uZkzZ46pUqWKlEF6704I6d133zWjRo2SMAvp8O7+QQaPB0twxIgRUj7unksuuSS13iizUqVKhb4RXh+kSz3TJiPrg/AV7YG0169fL3mk/fiJVbeRnDp1ysyfP1/aLfelRaw8uHfD29i1a5e0X9qie8/08kU7pq3TlvEkX375ZfGiCNMpySdwSxgB3rt3r7ilHPzNtURBZBA8GhWxNL8F8eWXX4ogRwqwg7jbpEmTJEb5888/S3gC0a5Tp47p2rWrdPJevXqZr776Su7HGiS++MEHH5j9+/dLfJGO+8Ybb5jXX39d0uB7JUqUMP369ZPnOxAjQiB0EO4hT1iDuObOEieuu3LlSulUdJYKFSqImGzcuNG0adNGBpwuXbqYBx980EycOFHy/uuvv8p3ySsiiRXMd/g7mZYw0OlfffVVc/z4cXnfREI51JdfoNJ693379kl5nTx5Ut69Vq1aItKIigtx8Fnv3r3NkSNH5J5mzZqZ999/X4Sb8nH1xjMc1EeHDh2kjEgf4RkwYIB55513UsuU+yn7wYMHmwIFCkh9E0Z4/vnnZVB0xFO3mSVWHmj/LVq0MNWqVZOjW7duMi8AsfLFgejOmjVLyqpixYqmWLFi8l0lC7AFHijW9fSmTZsWdnAtK7GjvGcbq2fFMXQlbawl4H3xxRfef/3Xf4WueJ614Lynn37as264nFtry2vbtq335ptvelYA5Nrp06c92/HDrrnv8Y7g7rFWpGcFQa4B6VrX07OWXup5vXr1vJ07d8q5w1oz3tKlS71z586FrnjeihUrJC/kKbuxVpyUqxVMz4pE6Gp0qIO+fftK+TooA8qiSZMmnhUSuRbt3a2lJs+w1l/Yu1tx8Ro2bOhZC07O7WAu5WgFRc7BDvKe9Qzke67eXD26+ohM13ppYelyv7XGvS1btsg5WDH3rMh78+bNk/N46zYSO4h7DRo08F544QXPDvxhh7VqQ3fFlwegnDkc8eSLOqFuevbs6VlhD92hZBW5OiacHlgBWFSxwO3FZXaWABYI1hNWFv/6KVmypLi5gOWJJe6/xr+kx3fh6NGjYsXecsstYdYf7jbWMxacA1exYMGCobPzXHfddaZu3bryHlh/uN6HDh0SlxZ3NLPgvltxyvDBJCfvgYUWj0W8Z88esVwJpXDYji+x5UceeSTMFY98d94PF/uOO+4Iq0MsOkJApAuENrAKP/nkk9TywH2nvKPVPfVBiKN+/fphn2N9ky5hKAeelN86xPMhbWeFZ6Ruo7Ft2zYJE/iPgwcPhj49T6w8RCMj+SJsw6oiJWsJXIQRkkiiXUsmdDAEi1hvLOxAJe4b7hyuKbFVxIawQ3qNPR6Iia5du1bCHIQq3FGzZk0RMuf+poW1akS8WFZH5yOOSHyQfOFqZxY6NqtFMnMgDAxAvAerTtIDQaBsncjgQiPKTEr5BSISBkLevXHjxmHlhlgST3X1gigT/iEEgUtNOVFe1H00qA/ioZH5JsZNKCRSBNMj0brt37+/zCX4j3bt2oU+zTyJ5ktJPoGLMCMwy4QQRg7+5lpWQock9uws0kis62smT54s1hN/E1fkO0xuEItk3S3WcaJgGSPsCAcrMiIPnpkWLOkaN26ciBerOph8tK6pxC8TBTGPnJmP52B5GcvhEFFm8qNZm34owwkTJqSKDHmvXLlyzJg1n2PlTps2LWq5kQ9AyO+++24pX8SeFRhMmFJe0ax06iNanhmIGdQiJ93SI5G6zUpyar4uZnJEOALRbd68uRxZLcBw0003yQ8CsBojrWE6JwLMpBuWGa4tliGTOnRCOinWEhMXiYKbzTMYDHAl3cEzmJWmw6QFFg3ucdOmTaXjuInHtAaWrIaZ9J49e4qAxyPAicDkIq4ylikWqis3ypJycc9moop7EGPCGffcc4/kkQEr2jpc6oNydOEMByEeBjiW1MVLInWbleTUfF3MXJQxYZZqPfroo7JkiTjk1q1bxUXlRx38ggrrFyHBLWVJDx1206ZN4uZiHTNjjOuWKMxqE39k+RrpMyDwrJEjR5qXXnpJXO60IFaH14CFx6oE8sZSNGbxsxsEmOV+rCrJagEGhJJldm+//bZ4J8QyqRcGT6xdRBOozx49eoiFR/kQS2ZpF3F64vWRUB9YzngY1AeDLYMxS+AwDtzqgnhIpG6BmDf59x+8RzwhND+UFV4fgxHllEi+pk6dKiEgtypISQ4XpQgD61lZzgWtWrUSN7hjx47i5rIcjRgrEFdkouiZZ56Ra7jQLF1jQixRsNBYYvbwww+LeGBp3X777fLrNkSN56QFcUq+iwDzLuQNUWrZsmXojuwBV51OjKeQHQLs4KfGlNGbb74pcWgXLnrhhRdS5xSoIzwFlpxRPkxGIUbUJQNxJK4+mjRpIm2hTJkypmHDhlIPLEmkbcRLInULLDWjLv0HS/CIh2eE++67T4SWJXwM0JnNF/VMOrQ3LGYleeTa/zsiIxBfxY3FukzrhwbuHlw5VjgkGyw1Ohgi5l/THAuqj3wRs2TFR7LXAOd0eG/CDrw39YfIROLqDs8m3rJNZn1ntm6TCQJKGRFucGWUE/KlqAgriqIEykUbjlAURckJqAgriqIEiIqwoihKgKgIK4qiBIiKsKIoSoCoCCuKogSIirCiKEqAqAgriqIEiIqwoihKgKgIK4qiBIiKsKIoSoCoCCuKogSIirCiKEqAqAgriqIEiIqwoihKgKgIK4qiBIiKsKIoSoCoCCuKogRIrt3eiJ1p2RL+/vvvNytWrJD9x9iO3Q+7Kn/xxRemTp06sqFnbmTp0qWyG7IfNnNkw1K2/c8I33zzjexGzSab7du3j7qfW7ywt9lHH30kOxizbf2yZcvMAw88INvZBwk7CbMLtx/2pmMz1RtvvDFb9vBjbzs2LGVHaMqb5wcNe+4tWLDAHDlyJHQlnAYNGqRusKpkjFxrCbN77KJFi2RnWLYL3759e+iT87Dx4axZs8zMmTPlX85zI7z3kiVLZFNHoDPNnTtXOs28efNko9B4YdNLttkvVKhQhgSYbebZFZkt5B2UN/VDPX333Xdm9uzZsmFnMuHd2Ag0I5CXd999V7bQd+zYscO0bdvWvPzyy+ann34KXc062HgTQbv22mtlY86cwK+//ir9aP369aErifHee+/JoeTycEThwoVlF1nEI3Ir9mPHjpm9e/ea7t27y7+c51bY1rxz587msccek23Op0yZYp577jkZgE6cOBG6KzZXXXWVefHFF829994buhIfWL2IWzTBp44uu+wyqadkWpmIb0pKihk4cGCGhRMLtHnz5lJeHEOHDjVTp041a9euFQ8rq2F3Z9rlo48+mmNE2HHLLbeklov/yKgVfObMGTkUYy6xnerF0N+BsWHDBrN69WqxOOgwRYoUCX2Seahg3HBCEKSLVVG2bNnQp0bc35MnT5qWLVuadevWSWO/6aabQp/+B8QZy2jUqFHipiLmxYsXD+sc8dzz888/m/nz54tFiDgcP37clCpVKmw79e+//16sgxEjRkRNB2HBGnnttdfM9OnTJdxSsmRJkydPHvk8Grwb7i3hBzcQYcVefvnlZs6cOaZKlSoihBDrPbAOaS6IKXn/8ssvxTosXbq03P/WW2+ZxYsXi4hRh1i7w4cPNx988IHUxcqVK6VeKlWqJOlt3rxZXPy8efOKxY64M2AmA96R0MaHH34oaRNOuPTSS0Ofpg0hF9oGYSwGHccVV1wh70BZVqtWTaz78ePHS7saNmyYnFetWlXq01+OpOXK0T/IpFfXeAyU2549e1LLCg4cOGBGjx4tzyVd8kc5O6/E5Yn6oH2QNpYrecyfP7/c4/CntWbNGgkJ0Q7S8nDwpJYvXy5hPd4/LWLlwbUhvLNdu3ZJe6FsaU+QXr5cuVAPeLi0PQZ3fxn9FgncEkaAsUSpZA7+5lqi0JkRAyoPkcLSciD0q1atEgHAtUaIeGakxbRv3z7z17/+1Xz99demS5cu5p577jHjxo0zgwYNElGN9x7S5RzRa9SokWnTpo3ZsmWLxPsYCIB/e/fuLTE30mnWrJl5//33pTPjCiJ8hA+w7GrVqmW6desmDRSLiThmRqFc/B0urfcYPHhw6nswCCBSWLZAp0DghgwZIvcQJ0ZQe/bsKQKNsCCs9evXl7Im3TvuuEO+iyAhkljB3MffyY630ulfffVVGfBef/31DFvEfigrf/4oAwYVBIV6qFChgrwH5di1a1epT96XukKkERUXEoqnrhEXv6XIYNqhQwfJA+kjPAMGDDDvvPOOfAfI08aNG6XOChQoIPVBiOf55583hw8flnuAtDp16iTiR1rMh+AZEaaK5q1khFh5oF+2aNFChJyDdsy8AMTKlyuXWbNmSVlVrFjRFCtWTL77m8a+WKBYl9ibNm1a2MG1rGTnzp3eQw89JP+68wYNGnjbtm2Tc7AC49kO5vXp08ezDSt09fy9Vjy9Q4cOxXUPLFiwwLON0bNiIOdgO6LXsWNHb8aMGXJuBwGvdevWnm1kcg52QPKsteidO3fOsyO/17dvX88KeehTT65Z68Q7ceJE6MqFWMtBvse9DiumnrUQvSZNmni2Y6T5Hjy/YcOGnh2w5Nxab17btm09a8nLOXm21pu8n8MKh9ejRw/PWjOhK57cH5mH7OTUqVOeFQF5R//7RYN3oi3s378/dOU8lAXXP/vsMznnnerVq5fahsCVo7X+pM4cVlykHK0FJ+fx1jV1B6dPn/asWF+QrvUew9IlT9Ya9+wAL+dgB03PirxnB3A5d2lR/7QDB98lT9aKD10Jx+WpXbt23pgxY8KOqVOnetZDkPviyQPwbu79IJ58uTzYQd6zwh6647dP4JZwEBD6wI0vWrSonDOaYqkxEtsykWu248rqifvuu09cdwchDcIBuFfx3IOVYsXd3HrrrWEz/1jp1atXF0sSi5LvYyl88sknqZNCuHTE4LCwcFOx6D/99FMJQ2BV4fpiaUW6mpHg1mKJjR07Vg7bkMWifuSRR8TVS+s9cI9x4zdt2hS6ciFYK8ScHVgxlK2z+pIJ7jsTZBk98BawZLHQ4rGInbXlyovvYLFShzVr1gzddT6eXbBgwdDZ+TaDi421T505KCPaGvUAseo6kqNHj0qIA4/C/znWN+nSHhy0Pb91SMiCtF19kBYWNs/ye0KEUvBm0lr94GAilTCB/8Dr8dd3rDxEIyP5ol0SFsktBC7C0QL6WbnUhUZPjIoOM3nyZOlkkyZNko5HSMK5gLhV3JtejDKee1iNYEd5EeUSJUqEHcS0nPtJR+3Xr5+4pbhZxCTJG7FDIJ6JENDpcV8RBFw5JosIE6QHDZwBxnUa8ososySMBp/We/BMwgvffvttakgiSOjYNWrUyNSBMBD6oNxjLfmiPIhXu/I6ePCgefrpp2Xw8g9SkfA96rpx48Zh9YxYMh/gRChWXUdCHJqBOjLf1A+hEPIXL6RFm2FZpj+PDC4MUi60kRaE06ZMmRJ2EHqgnSRCovn6LRO4CDPSseyJEZ6Dv7mWVRDzxOpDVFwn4+CcmW8sUyD2Fs0q8RPPPYgcVmyvXr0k/ciDjo04cN/dd98tnRXBZBUDEyGvvPJKquXG+l5inFimNH4mM5544glpvOnBpNyECRNSOw2xxMqVK6fGONN6DwYHBJ6OHs+kVlbDJGu0mflYB8vxWA7HoGNd25h1htgjLK68Ro4cKd9NT4CBcuSeadOmRa1r8gHx1LUf2k969RPLE/JDWsSTeXa0PDIoBEFOzVd2kCPCEYguS4I4slKAGU2ZlcXFnjhxYmon48AaxiKhU3AfoQMGBCbQXIgCsKCZKMBqieceBBbLB/FHyHDNOBA2JixofHRK/sai4W+sXSbGmOBiZQeWKFYUk2LcRxgC6wqBwUVNL1wQD2m9B8vXsEIIN5DP3yLMpFOOCHg8ApwIlCOuMvVI/bq6xsPA0nPPjlXXkRD2YGLZhTMchw4dkjrzh4NiQVrkh8lBlz8O8nb27NnA6jmn5is7uKhiwoQccDOJ2UVaNbh6zNYSL6Yj0OiZ2Wd9KMtoaAhcx20kLgvx3APEbYmlYY0i0Czd4ld8iCiDArD0rEePHjLqI7jcx3If4qvEj3F1WWHB4EHogHu2bt0q74PIJ0Ja70F+6RhuRUNmIX1WDTAQ8R7ZBQLcp08fcaGzWoDBlePbb78t5Yh3RV0R9sLaRTQhVl1HwioDLGdWqzDgEppgRQxL4DBa3OqCeCAtBm7WPpMWbZG6xtp/6aWXJJySHoS2yH/kkVYoJS0oK1ZCMRhRTonki5g45TNv3rzQld8WF5UIU1kI8c033xy6Eg7WJTDRAPw8lyUyhAAQuttvv12sUX5SSmgg3nuYoGMZF2EQJh6wXIgJIgx0Wqhbt65p2rSpLENykzQ00GeeeUbibRz8Td5wzbiHEEe7du3ku4mS1nu8+OKLGXJ3o8HgRkwWdxw3HxHJarDo6cTEz7NDgB2UI8LPenDembpCkGkPbq4jVl1HgsXMssYmTZqYjh07mjJlypiGDRtK+6INxAqT+HFpPfzwwzIw0Bapa4wE8u3abFqw9pe19ZEH63szApPACC0GCsvsEskXAxmDe0YHgpxCrv2/I5KJq2Q6MiN4NOK5B7iHe7knmjAwkYfrimUeLR2qi8+JBaaVRiLE+x6ZgbTJP2nT6XIz1A9hB+LEzORHe99YdR0N9x08FP8PfTJDVtZ1vCDElJELy0FOyFd2oiKsKIoSIBdVOEJRFCWnoSKsKIoSICrCiqIoAaIirCiKEiAqwoqiKAGiIqwoihIgKsKKoigBoiKsKIoSICrCiqIoAaIirCiKEiAqwoqiKAGiIqwoihIgKsKKoigBoiKsKIoSICrCiqIoAaIirCiKEiAqwoqiKAGiIqwoihIguXZ7I3ayZWNPtrFnZ2P2+WLbc2Cn2mXLlpkHHnhAtikPAvYKW7BggSlatKhs9BgN9w7sFpzoXlvJTCu78dcXG52yxxobpF566aWhO4Jh6dKlsqOzHzakrF27trnmmmtCV7IWNmN99tlnZYPR9u3b54i9+06cOCE7H0fb0DVPnjy/yTaYleRaS5hdWhctWiTbt7Ml9/bt20OfnN/6fvbs2bIRY1D8+uuvki/ymRbuHdgMMVGSmVZ2468v6pFyo/ySCRtzZtQeIS9LliyRjSmBgXXu3LmyqzQilB32DRt+Xn/99aZQoUI5ZvNU6on6YrfrRPnXv/4luy27HdBzI7k6HFG4cGEZcWmoyd6VWMle8uXLZ6688kqpT//OvMkAy5qt/T/55JMMCydbs3fu3Nk89thjslX7lClTzHPPPWdmzpwpFmFWc9VVV0ne8QxyGngulIv/aN26dYasYAZHrP1oVnVu4RJbgS+G/g6MDRs2mNWrV5sdO3aYn376yRQpUiT0SeY5c+aMuIqEIEj32muvNWXLlpXPqFTcW0IVNOK0+Pnnn838+fPNm2++aWbNmmWOHTtmSpUqJaLuoJGsX7/evPXWW9IB+Tt//vymYMGCYUJx+PBhM2LECDN+/HgJC5QoUcJs3rxZ3tXlK5Jdu3aZnTt3murVq5sZM2bI90mf7/CMyPRJe+zYsWbhwoUiJsWLF08dfFxadFbyHyvfNPrhw4ebPXv2yNbqb7zxhpk0aZKUAZaXf7t1LMFVq1bJPdOnT5f3K1mypLiefg4cOGBGjx4t+VyzZo2IKgOl/3nUGd7Lyy+/LBZwpUqV5HzLli1Sl8ePH5fn1axZM5Rq4rDl/OWXX24GDhwoYo+wxiPy69atEwEn/ODKme+R1pw5c0yVKlUkvbTeC9IrE4e/7dBuabO0Ae7BUqQLU9+0TYhVH4nULaEh2u4VV1wRuuNCTp06Jf2G+uJdohFPHrB+sYLpv/xNPm666SaTN2/emPly5cJzKPshQ4ZIvbgyykkEbgkjwHv37pVC5eBvriUKQkMHoKHS+DIag2IwGDRokJk4caJ58MEHJd6GiHXp0sV8/fXXcg8uMR2jb9++ply5cqZbt24ifD179jSbNm2Se4AG9Mgjj4io8306BGnTcGKBNUVDQyi6du1qChQoIBYFounYuHGjadOmjQw8pE9+yTeNOprbHk++6dSIBZ2JdO6++25JF3cb0XBhDeqMtGjwDBY8H7ec/JAvB4LVqVMn6SS8B8/FYiQ9nuWex2D37rvvmooVK5pixYrJd4n98t6///3vpR4jxT0ZVKtWzQwePFjeLTMWsR/anBPR9N4rVpnAvn37TPfu3UVAuId6YLD49NNP5XNnKf74449ynlZ9dOjQIbU+XJ7irVuMkDp16khaCOzjjz8u+UqEePLAQNOxY0cR16ZNm5pHH31U+nQ8+XLlMmHCBAnDVa1aVYyMHIktjECxbps3bdq0sINrWYkVea9Bgwbe/v37Q1cuZMGCBXKPHRRCVzzPNnTPjsyerXzPNgTPNm7PdiTPjtShOzy5bkddz47ycm5HYs92CM92HPnbYS1/zzYMLyUlJXTlQvjMimPYPTzTWkWebXje6dOn5Zq1prylS5fKZ44VK1Z4bdu29b7//ns5Jw13Hk++rdXmWZEOew5YS8xr2LChZwcQObcWqle3bl15Hwfpkw71SLp8n3Q+/PBDz3aO0F3n82TdU89aP6nPswOB98MPP4TuyH7sgOm1aNHCs2IQltdo8I7kmbw7+A7v2aRJE89asGm+Vzxl4s579+7tWaNAzsF6UJ41COR71Cf16tpIWvVBm+nVq5e04YzUbaNGjcL6gPuu6wPRoF/Rd1544QVvzJgxYceSJUvknnjz4N6PPuuIJ1/ue6+99lpYv8iJ6BK1KGApbtu2zdjGbK677rrQVSPWCC4WrjFWJy7obbfdZsqXLy+fY+kyGYHLjAWLK8S/pFWrVi2xZh0VKlQwt956a+gsbW6//XaxaBw8s379+uK2HT16VK6RR/LKZ7YBGtsAzaFDh8Q6wC2LJJ58O2688UZx/xxYcbjMVgDkHFcR1xoLz0H6xEebN28u8VvySXmxCsTvZmOd8OwjR46ErhixyFnJkghuMsd2wgwfuP14KljF8VjEuNNYZYSBOKwQiKWK5+N3xSPfK94ywepnIpIwBN4Z8B1CWP7vOdKqDyxGK45hk2Xx1C3uPyt4HIQJaGtMShKKSQ/aPSEW/3Hw4MHQp+eJlYdoZCRfhDZ4/5xM4CLsFzlHtGvZiR05jR2dpWIRET/E4xAqBA6ItVpLRWKUdAw6MrFehJwOjKDRefxxZMDFprHFAuH2izdwTrqusZFXBIAYd+nSpWWgIE6GIKfVmGPlO15OnjwZtZz8kM+1a9eKEOBauoNn4yJHC5kkAp2OQa5GjRoZPghL4AazdNHFXdMDMSWs4ESGekaUmZRK77vxlgmDt7UWJXzFoGmtdDN16tRUQY4krfogjIO4M0DHC2lNmTLFlClTJiyPTESm17Yc/fv3l+/7j3bt2oU+zTyJ5iunEbgIM/K70YqDv7kWJHSetESFCmbkplETcxowYICcE/Mjns3aUdZBOohjRhuJ6WR0iljwvEhR5Pyyyy6TgwFj3LhxIgCvvPKKWAlY6uQrLeLJd7zEY2VQllhnxP9Yrxx5+K22ZEDdMAsfOTMf6yDmivBSFtaVNpUrVw6lmDZMyhF3dCJDufI96j094i0TyrdVq1Zm+fLlMhH18MMPm2nTpkmdRxu80qoP2gyx54x4GaRFOTL/EJm/kSNHhlmw2UlOzVdmyRHhCEQX15UjaAEGxI1JEgTN787T6OkIuKtUNGKGS9myZUvpvFi3TCg4KxmYSMBtQhj9Yoq7ibsWC9xdQgt+EE2sHSarsKiY/Wbigo7rJiCxFtIinnzHCxYnz8c78IMLzQQrZYZbjoVInvAk3EFnOnv2bLpWdHbBYPfRRx9JJ8aCi0eAEyGeMqG9UCfUF9dZ4dOsWTOZzHMhsUjSqg+sa55Hm4kX0mL1BmXjzyP5g1gDTVaRU/OVWX5buU0iVBgiiFj4Dze7ihvI7C0z2nQEZp+Zuf3888/NQw89JCLIAnlED3cUqxYXMSUlJXXmGrA+WBaGC7l48WIJI7AqAuspnsaCQJIHGh1WLyEDrCBmk+lQWDZ4D+TBLd/innfeeSeUwoXEk+94ufnmm0XIx4wZI2LB+2G1sRSL+CNiQj6JYw8dOlRWXyD4fIbgvfTSSxJOCRI688cffyx1Qr6zWoAh3jKhXp5//nmpfwY0yviLL74QV9wNuH7Sqo/JkyebJk2aiFjFC2nxC0CWkpEW7W/r1q0SxmLJZDRL3A8hr8j+hbXKu8YLgw9tnL5KKIX2nUi+6IeNGzeOa2VSdnHRijDLzJ566imxBv0H7iFgdbC2kOVlTIQwgfD222/LxAuTWoA1QxyKGCBxVax4hJDG7gcRxnrh56V0Hpbd8DPTeCbmWNdIfPHpp58WsWWpEQKMi0rYBJFmORjPJV/EhMkn75IW8eY7HvAIWA5Fw69Ro4a8X79+/SSf7gcE5JM84kozYcc6XCYc+RUfE2h0qCBBFLBIs0uAIZ4y4R7qkbZHG6AtINyIEuGTyLkCSK8+mDMgzXhxaQHPpf2xTIz1z8whxPJgGDz8fYtj2LBhqcvp4gEjhu8hnnfeeaf0x8zmC8+CuqatO6s5J5Br/++IZEHx4PJjLdEgolmvjM40LEbtaNaJgxGbtOhEiGdGcM8gVIIVHkk8+Ywk3nzHC2mRJmmRZjSS/czcQDxlgseCcBBSiFb/0YinPuLFPT8zbTcZOAHlPfwiG3S+koGKsKIoSoBctOEIRVGUnICKsKIoSoCoCCuKogSIirCiKEqAqAgriqIEiIqwoihKgKgIK4qiBIiKsKIoSoCoCCuKogSIirCiKEqAqAgriqIEiIqwoihKgKgIK4qiBIiKsKIoSoCoCCuKogSIirCiKEqAqAgriqIEiIqwoihKgOTa7Y3Y1ZWtv9nccMWKFbIH1V133SWfsdPqwoUL5W8Hmyay8SabKia6H1ckPG/ZsmWyWePVV18duhoO+4Gx5Xr58uXNlVdeGfP+7CKtsmJTUcoqO7YXZ++8F154weTLl082S422wWV2w36BCxYsMEeOHAldCadBgwbmuuuuC50pStrkWkuYXWsXLVokmwCy1fb27dtDn5jUrez/9a9/ha4Ys2PHDtmxle3G2QI+mfC82bNnmx9++CF05ULYxJD8ku947s8MjLdsBJoR0iordrVld+Jkl1U0GBQRNHbAjrXDb3bBbsa0q/Xr14euJMZ7770nh3LxkavDEWztzk6z7FAbad1iVTVv3ly2DucYOnSomTFjhtm4caNZvXp16K7shzyzozL5TqaVifimpKSYgQMHZlg4o5UVW5CvXbtWPI6sht2Fu3fvLoNkThFhxy233JJaLv4jo1bwmTNn5FAuPnKECG/YsMHMmjVLDv5OBogZIobrmjdvXjmPRYkSJaRT7dy5M3TFmO+//96MHz/edOjQQY5JkyZdYKGy7fbcuXNNly5dxEIcO3asfC89Dhw4YJ544gnz+eefi0AiNC7PCHChQoUk38mCdGvVqmUOHTpkXn/99YQt2FKlSplKlSqZTZs2yfmXX34p77N161YRaf4+ePCgfOYvH8qQ8jx9+rR85qC8KDfKj/tw9fEO4L//+7/Nm2++eYGlSBkyqPAdRJpBwW/puzzt2bPHTJs2TZ7NfevWrROvwI8/rWeeeUYs3GRE6qjfPn36mK+//jr1/TjftWuXfI6HwTmhKA4+5zuOWPly6ZNe//795W+/16LkfAIXYUR379695n/+53/k4O9kCDHWLxbc7373O5MnTx4RtlhEuuvEQ+m4dOY2bdqYv/zlLxJffuONN0RYADEbNGiQmThxonnwwQdN+/btRcT5Ht+Pxr59+0yvXr1M1apVTd26dUUgOYj/YgVjtfM315JJ/vz5zauvvmqOHz+esBBTrv78IZQIxIABAyTdypUrSx248pkzZ45p1KiRlOOWLVsktnvy5En5Lv/27t1b4qsIcLNmzcz7778vYRDcfuqFsIjfUkRIKWPy0LVrVxkQePY777wj3wHyRBhqyJAhUl/UDQNbz549pU4dpNWpUydzxRVXSFrlypUzzz33nAwciQoxsX68q8GDB5sCBQpIHhjEn3/+eXP48GEpoxYtWphq1arJ0a1bN5kXgHjyRforV640L774oswlVKhQIelzGkoWYyszUGbOnOlZKyXs4FpWYkXea9Cggbd///7QFc+z4uutXr3aq127trdq1Sq5duLECW/hwoWebehyDlZgPeuap37XWmySlh085BxsJ/Neeuklb8mSJXLufx6HFRlv3Lhx3rlz5+Tz7ObUqVOeFQHPdtywd4tGtLIC3pfrn332mZxznxUPb/ny5XLuoHys8HhW+ENXPM+KrtexY0dvxowZcs53W7du7VmhlXMg/c2bN0sZnT171uvbt683fPhw+cxa0Z4Va2/EiBFhZUj9NWzY0Nu9e7eck27x4sUlDw4r5F6PHj280aNHy7lL68MPP5Q24EhJSZE8HTt2LHQlHJendu3aeWPGjAk7pk6d6v373/+W+0jHDraeHXjkHL755htpA/PmzQtd8eTd3PtBvPnivF69etIuld8mOSIcEQS4yrhuuHkctvOazp07m4cfflgsVMByvOeee8zll18uFjJuHhNnWDD8jcW1bds2sWb9MUBWYjCb71ZjOKyQycSf7TTGilDCFgvuuct/Rg5ccixZLLR4LGKsUEJFuNMcfAeLldUkNWvWDN1lTLFixWTyzOHKh/v8qzzwUKpXry5WKtYq5UuZfvLJJ6mudOnSpSU0FK2Mjh49aqwImfr164d9jhVYtGhRWRXjwHq84YYbQmdGrMqSJUuK1wWkhYXNsygTB20A6zmt1Q8O2sOaNWvCDqxslz6ULVtWysZx1VVXyfv574kkI/kijFWwYMHQmfJbI3ARjjaBkR1LexCFVq1aifuHICIMCBRun1sCRWMnloi7SMetUaOGGTVqlMQzERiWKfE38dxYE0ZO9BG+a665JikTTHRs8pSZA2Eg9EEcPNaSL1xea5Wmigzv8vTTTxtrCYqApoUrn9dee02e4z9YWeFCDQhlv379JARRsWJFWVaYXlydJWuId2S+L730UnHJXSw6HkiLWHKdOnXC8sfgQl250EZaEGKZMmVK2EHoIdF4fqL5Un47BC7CjOzXX3+9WDQc/O0s0ayEWNzNN99sbr/9dmnoCPAXX3wh8VrHzJkzZRXA448/LtYNlpt1GVOtGiyUeMWUmDRWMJMsw4YNS8rSJiztaDPzsY4GDRrIcjjWIVvXNqZFzvsiLE5kRo4cKd9NT4DBlQ/xb1ZRRB6IOAMB9919991m/vz5Egd98sknzfLly80rr7wS1UonzWh5RtDxWPBg4oW0iCfz7Gh5ZFAIgpyaLyX55IhwBKLLEiiO7BDgaOAe8+ODDz74QGblsYJ3795t7r33XlO7dm1xYxELJlVwzwEBwYpj3ax/RhorhVlr/yoLLG0mXBAvLGsmyNKauMtKeCcmphDweAQ4EVz5sDIAKxU3nANrlXJEaFyZYr3yN241ISDySLl+++23odT+A+43gxqrHvyw8oNJP3/4IRakxYDM5KDLHwflwhpz8hgEOTVfSvK5aGPCkRDHfeihh8TyoCMTYmAZFn8jlggry4UIR+CeO1j25X7QcOrUKfmM2WuWafnvc9CJWO+KODGTn8gKhYyCABMSwYXOagF2UD7ETSdMmCDlwwDHChMs8iVLlsg9/OihR48eYuERJ+U+BjFCQAxekbDKAMt53LhxskSO0AR1RN0wiLvVBfFAWsSWqS/SIn8IP9Y+ngvhlPQgdkv+I49YSxQjYVBhZRCDEQZAIvkiJk75zJs3L3RFycmoCPvgp7hYvYQhiMk1btxYXFsm3hBklgfdd999YZMsTESxBIpwBZMoWNNvv/22uNpVqlQJ3RUObjxxaL7DuuP0JmiSBa46nZjlX9klwODKB6+A8sFKJf5LHvAygPJt2rSpLDlzE3KIEetio8VWsZhZ6takSRMpxzJlysjE6p///GcJfcQKk/hxaTEhSxiE/BGiYuBgwCLN9Jg+fbpp2bLlBQcDdkagXSG0DFoMzonki/aEAZDRgUAJhlz7f0ckExo0DRtrJS3xohgRbmKShC6SvcY3NxCrHJnIowyZcOOeeHDfwXXHe0kEJ17kLd7nJxuEmLbjQjWQE/KlZB0qwoqiKAGi5pqiKEqAqAgriqIEiIqwoihKgKgIK4qiBIiKsKIoSoCoCCuKogSIirCiKEqAqAgriqIEiIqwoihKgKgIK4qiBIiKsKIoSoCoCCuKogSIirCiKEqAqAgriqIEiIqwoihKgKgIK4qiBIiKsKIoSoCoCCuKogRIrt3eiJ172XX2/vvvl9192U2Zbd6BnXmXLVsm289fffXVci03wv5rCxYskHevUKGC7L7LpprXXXdd6I5gOHHihOSFXZId7Kl28803m8qVK8sec9nB1KlTJR9vvvmmbEiaE1i6dKnsih0NNvpkE1Qld5FrLWF2pV20aJE5e/asbEG+ffv20CdGtqifPXu2+eGHH0JX4oNt2OmwfvHIKbA7Mbvw8q+Dbfrdu/OuvDPvnkwYw9ncNCO4vLD7s4N8s1Py008/bU6ePBm6mrUULFjQXH/99RnanTmroa6WLFkim3smSk5ur8p/yNXhiMKFC8vutOzEm4wt3tnxFhHLic4DnfbIkSNRO2+RIkXMZZddJmWBxZlM1qxZI1vTZ0Y48UQee+wxOQYOHCjCzDbtiFB2UL9+fXlurG3tsxu2t+/cuXNq2bgjo1ZwTm6vyn+45EVL6O/A2LBhg1m9erXZsWOH+emnn0Q0EuXMmTPi1hGCIF3czbJly8pn33zzjYQjCFVcddVV5ssvvzQvv/yyKV26tFm4cKF56623zOLFi02+fPkkL2xDPnz4cPPBBx9ImitXrpT0K1WqJOkdO3bMvPvuu2bUqFGSLoJfvHjx1G3vsUjGjx8veRg2bJicV61a1ezduzfd57otzyG9Z5Dea6+9Zvbs2WM2b95sNm3aJOkjulhWiAwW38aNG02dOnXknZNF/vz5zbp16yTsUa1atbisylOnTpn58+dL3TBQOgibHD582Bw4cMDUrFlTRITmiSVHuQ8ZMkTSL1WqlAw2q1atMm+88YaZPn26hJhKlChhrrjiilBq57eP/+yzz8zrr79uZs2aJWXIdxmUwdULZeW2y//5558lb1iQ0b7zr3/9S/KEl4HAkac5c+bItvuIp3+w96eVkpJijh8/LmmltzU/ZUlatWvXTtNwiJUHrqfXXmPly/UH2uD7779vpk2bZm666SaTN29e+VxJLoFbwggwYkSn4uBvriUKnQYxQ8jy5MkjgpQWdHLEisZMA23fvr00uJ49e0qDpDPce++9YjndeOONpkuXLuaOO+6Q7+7bt8907dpVLEGu16pVS4SWzu2sUsSEjkDHufLKKyU+S5qxnuuI9Yzy5cubVq1amaJFi8q/LVq0kPfn3Xke745YE/9Oq2NnFkSxb9++pkCBAmbAgAEJhRLIrxu4gDAHA+aECRMktIRYIvq8M++OiDCoUCYI++OPPy5lBdwzceJEM2nSJNOoUaPU8iOvWNtAvZC+C6dgAAwaNEi+9+CDD0p97Ny5U9L/+uuv5R6Xp5kzZ8rA2bx5cxkwxowZI4LlrE6XFuLI89u0aWO2bNlinn322YTKCGLlAW8nrfYaT75ol+vXr5f65H7i9G4QUrIA22gCxTYkz460YQfXshIr8l6DBg28/fv3p55bq9Kz1pycg7UcvB49enijR48OXfE8azV4thN7Z8+elXPbWD0rrN6IESO8c+fOyTWw1ozXsGFDz1ohcs736tWr59kOLeeOeJ4b7zN4F9uhUt8pu6FMyGO3bt28EydOhK5GhzxS/ry/H2uReVb4PCu6cm7F0mvbtq1nrfywd7ei4VkB8eyAHbpy/vnUjRVmzwpw6ncpJwfXVqxYIWUM1Av3cB2oB/LlT9cKtdenT58L0qVOqBuwouhNmTJF8n769Gm5Rlqc804OK3Jex44dvRkzZoSuXIi1YL2mTZtKWVpRTT3swJCaVrx5iGyvEE++qBc7sHvLly+XcyVrydUx4YxQrlw5ceUcuLUlS5ZMtWajgfW1a9cusTL8FiZpYZUSHnDgdjMRFEms52bkGckAF9128AwfxDCPHj0q7nG8FjErE8aOHSuHFR3TqVMnseIeeuih0B3nIZTif3fCS7jHvL8DV5qVH3gWuOWXXnqpeEBYfEz6YT0ShrnzzjvDQhYOXPht27ZdsHoES5+wCdYiLr2jYsWKqas4sOAJdVFnPMeldeutt4atvsEzq169uuQRazMtKEfCEsTb3UGYiUlmP+nlIRoZyVexYsVyzIqR3E7gIhxtuVTQS6jiBXfWWh2mcePGEo90B+EGYm7pCXi8ZMcz/ODu16hRI1MHS8wQLfIXT2wYQXAigwAQRiG2TR7SA4GfMmWKKVOmTFiZMBA4ESK+zGoL4qeEbxDf3r17S3jBGh+hlP4Dy/koZ8Q8cvIS8WZZHQNiPLi0eBd//jiItSKG0fLgIB5MCIZ3dAdzAQhjIiSaLyVrCFyEifM5S4eDv7n2W4D4JWLDxAXrkiMP69qG7sw82fEMP8zAR87Kx3MgoMQRsca6desWlwj3798/VWT+8Y9/SDw7nklD2knr1q3leZHlMXLkyNQJJAbzt99+W+LrTFRhHXfv3l3mHSLBkkxr5QiiTprpzSv4cWkxCETmj4O4NKtVspucmq+LnRwRjkB0mVzg+K0IMODSsUIBd5cJMASEg0kMXGK/C51ZsuMZicJ6X6zMQoUKxS3AiYAXwAoKF2Jwh3PXGbiw+igzJjwJP+CCM+F5zTXXyI94IkF8CPEQ6sB6dmAdsgqDEFG8qwNcWkzmIfwuf9Qfa6QRQgQxu8mp+brY0ZhwBsASYvadRkyYgHNmobG2WFpGh6cDT5482Tz55JPm0KFDoW9mnnifQQdDhBAYPk8rLphsEOC//e1vEtfODgEGwh4su8O6ZZUAgrt161YZCGbMmCHCydIyZvxZgsUMP/cgpizHQlCjQdiCmDZLAQk9UMdz586VODlx6vSWlkVCWvxgiLACabFcjl9u4jXEWgdNuAUrnx/a+A/WgWeEyPYKmc0X5Yz3QTukfJXkoSKcAVgHi7tNCGDw4MEyiVGvXj35pRrLpfiMyRLE8oUXXkhabDueZ2Dh4c4///zzsuwIKzA7IFZapUqVbBNgwCJluR+wDIsQ1qOPPir5YJIQi45JJcoMUWYJH/ewhIsflmBJR4PvsFyQ8AVhGZZ3ITq46bfddlvorvhwaRGDJi0GqX79+omQMaimB2ubH3nkEdOyZcuwY0MGl25Ga6+ZzReDOt9HuLNrgL9YyLX/d0RWwuQPxUYowLlvNExcOlxhJoWywq2L5xncg9WHu8l9uR08AzwAyoN3jsSVGRCWiKdMqFtCPXw33u+kB1YobQbLNIjwUbT2CkHnSzmPirCiKEqAaDhCURQlQFSEFUVRAkRFWFEUJUBUhBVFUQJERVhRFCVAVIQVRVECREVYURQlQFSEFUVRAkRFWFEUJUBUhBVFUQJERVhRFCVAVIQVRVECREVYURQlQFSEFUVRAkRFWFEUJUBUhBVFUQJERVhRFCVAVIQVRVECJNdub/TPf/5Tdh6+//77ZTdZ9iC766675LOvvvrKLFy4UP6OpEiRIrLhITvzvvzyy+att96S3X35zrJly8wDDzwg29DHA3u9LViwQJ7N5pLz5s0zdevWTdoGoJkl2vv/4Q9/kM0s2dwyO/amYw83NirNly+f7IrM84PG1VdauxqzYWbQdafkPnKtJcy23osWLZJNINkufPv27aFPTOq25mwNnxaIQ6VKlUyePHnknO/Mnj07ddPIeGBrcPdsvsf3SSeZMIayIWVGiPb+O3bskJ2KGXjYIj6rYWNJBI3df9kdOSfg6ovt5pMBW+WzQza7FCtKmmAJ50ZSUlK83r17e1ZovL///e/e6NGjQ5943oYNGzxr1Xj79+8PXYlNZr5jBwCvb9++3pw5c7zDhw97TZs29TZv3hz6NDlYi917+umnvRMnToSuxCatd/nyyy+9e+65R9K8GHH1NXz48NCVxKANkh7pKkpa5AhL2IqCmTVrlhz8nQwKFy4sbjVubt68eeU8I1hBMk888YQ5ePBg6MqFsN363LlzTZcuXUyHDh3M+PHjzenTp0OfGnPZZZeZAgUKiKV3+eWXm0KFCkleksktt9wiW5YPGDDAnDx5MnQ1c5QqVUqs/02bNsm5K4OtW7eaoUOHhpVHrHeHX375Rdx77sHKHjt2rPn+++/lM6xDrMT33ntPzh3Hjh0zI0eOlPv5Ht8nHYfL0549e8y0adPk2d27dzfr1q0Tr8CPPy3u+eyzz2SL90SJlQf3bpTJ8uXLTadOncLeM1a+sKD79Oljdu3aZfr37y9/p+e1Kb9tAhdhRHfv3r3SCDn4OxlC/Kc//UlCCr/73e8kpIBQZQQ6krUU0+y0uOyDBg0y1so1jRo1Mm3atDFbtmyR+KYTQ5595ZVXyrMZEIgl44YnE8TdWlsi9okKMfn1x4MpA1xz0uV9K1euLOUaz7tTbhMnTjSTJk2Se7p27SqfkVeEGLEiLHLmzBm5H/bt22f++te/mq+//loE2FrlZty4cWbw4MEi+kCeCO8MGTJErrVv314Gtp49e4o4OkjLPZO0atWqZYYNGybCmFadxkusPFDHzCvUr19fYuw8/4477pDvxpOvH3/80axcudK8+OKL0n6YT0h2u1FyEJjDQTJz5kzPWhNhB9eyEtzx2rVri7u4du3asMMKQ+o9fpc98txaaJ7tfN7x48flHGzH8jp27OjNmDEjdCX7wOUdMWKE161bt5ihich3cdgBUK5by0zOua98+fKetebk3BHPu1uh9ayl51nrUM6BaytWrPCs8F7g+lth86zoeNbq86wIyTUgTw0bNkwNkZCn4sWLSx4cpNejR4/UkJNLi/I4d+6cXAPyQlq7d+8OXQnH5aldu3bemDFjwo6pU6d6//73v+W+ePIAkeGIePPF9+rVq+ft3LlTzpXcTa6dmIsF1tZTTz1lWrZsGXYcOHAgdEfaMIGzbds2c+utt4atlMDyrl69ulhJWEuZAVcUNzWjR+fOnc3Ro0fFuozHIuY+wj+ECDhef/11scx4p5o1a4buMqZYsWIyeeaI990vvfRS8UCwlglhMHl41VVXmTvvvNNcccUVoW/9h1OnThkrOua+++4T695hxU5WbbgQCZQrV87ccMMNoTMj6ZUsWTLVkiQtXHmsT78FyfeKFi0qYYT0YFJ3zZo1YQcWrt+CjpWHaGQkX4TPChYsGDpTcjOBi3C0JT/ZsQyIhr906VIRY/+BuMSCpUzEP1977TVTokSJsIPVBQiVHeBCd2eM/Pnzmxo1amTqYCkdAkY+/EIWDVzezZs3p4oMQvn0009LuCC978b77izL69Wrl8QycbkR3969e4vQRisb8sO9hDv8IOa4+t9++21qSCIWpEUeGzduHJY/3Pr58+fHDEcQPpkyZUrYQUgk0Xh+ovlScieBi3DVqlXN9ddfL5YBB39zLSdD7JTJNkSG9ciRB0LGpFxmYKLtsccey/DRokULid+WLVvWdOvWLaYIY+EiLE5kmChiDXSs72Xk3RlM3377bbEihw8fLoLKRBRx/0iIRUeLeyLYWNHERvl+PJAW78GkWbQ8NmjQIHRn9pJT86UES44IRyC6zZs3lyOnCzAgMljSWM4IA242B0LBemBECrHKLrASsTJZfRGPACdCvO+OxYx1jfWKq46HwcTVNddcIz+iiYTQBgMwE3x+S/nEiRNm48aN4vqTdjyQFmEMnk++XB6xsvmRSDSxzw5yar6UYLloY8KJgotN7HDChAkS62MZFb/MwypdsmRJ6K6sBwH+29/+JiKV1QLsiOfdWYbFaomUlBRZTYEo8yvE48ePS+w0ElaQsKJg6tSpZvHixfIjG96NZyBSbnVBPLi0sMJJi4GAUMfkyZPNk08+aQ4dOhS6MzrE1vnRRuThltfFC/lgNQQDFqGIRPLFwHX33XfLry6V3IWKcCZhsoolSsQ4CSEggv369TOtW7eWjpZdYClWqVIl2wQY4nl37mF964wZM0z58uXFyh0zZox55plnJAYajXr16pnnnnvOvPrqq2Jt33777eabb76RpVrEyjMCafF81usSoqlYsaIIHz+VjjXnMH369AsmbOOdtPVTrVo1eTZhBkI/TFhmNl/EixHyjA4ESs4n1/7fEdkJnYNOgqVzsbmUsd6deK77qTdhCf865LRwgkN6pJsI7vk8l8nC7AwTOXgfuhnv456fE/Kl5AxUhBVFUQJEwxGKoigBoiKsKIoSICrCiqIoAaIirCiKEiAqwoqiKAGiIqwoihIgKsKKoigBoiKsKIoSICrCiqIoAaIirCiKEiAqwoqiKAGiIqwoihIgKsKKoigBoiKsKIoSICrCiqIoAaIirCiKEiAqwoqiKAGiIqwoihIguXZ7o3/+85+yQ+39998vOwGzj9ddd90ln3311Vdm4cKF8rfjD3/4g2zLfuONNwa6Txx5W7ZsmXnggQdki/ScgD9PX375pWzPzoaebHkfFOzevGDBAnPkyJHQlfOwwSg7M7OVfHZAubz88svmrbfeMjfffHPoarBEa9+OIkWKBF53Sji51hJmS/ZFixbJ1ulsV759+/bQJ8Z899135t1335XtxoEOvWbNGvPoo4/KrsWRHTse3nvvPTkShbzNnj07dXPMnIA/T5Qj5fnrr7+GPk0ObHyZEXuA55OP9evXh66c33R04sSJpmnTpmHXs5J8+fKZSpUqmTx58oSuBE9k+04E0mB3aAZfJWvI1eGIwoULy269f/rTny6wbuk8zZs3N4899ph58sknpfMuXbrU/PnPfzZ///vfM7y1+JkzZ+TIrVBeV155pZTnJZdcktTdgbGs2db+k08+yZAQA1vuU4ccbKc/a9Ys2WKef3/66afQXVkH1u/QoUNNiRIlQldyBv727T8efPDBDFnBDI7ffPONbNevZA2X2Mb/YujvwNiwYYNZvXq12bFjh3QcXKZEQRB3794tIQjSxU0tW7asfEajwo0kVOF3WxFr7klJSTEFCxY0pUuXluu//PKLWbx4sRk+fLiZPn26hDlIj+9iKVCES5YsMbt27ZL72Nq9VKlS0oCxyHBVp0yZIn/nz59f0k5LxFze6tWrZz777DP5LmnyLMrF/z0GiqlTp5rRo0ebjz/+2Jw+fVqee9lll4XuOH8PFvqIESPERWUwKl68uAip48CBA5LG+PHjxSNAbBnA3LPwJrZs2SJlefz4cdnCvWbNmvJZMiAUdPnll5uBAweKeNxwww0xRZ48LF++XMJM1apVC121Ddq+FyKDCNeuXVvSpd5oC7wHoQMsRaxXiPXucPjwYSk/7qFu/HWBhUiaN910k8mbN6/cT95WrVpl3njjjdT2UrJkyVRrGUEjT3v27DF//OMf5b5JkyaZY8eOmeuvv16uOSLTItSA4NPG0iKt9u0nnjzwbljB9B/+Jh/uPWPly/ULnkPZDxkyROqC9qmEE7gljADv3btXKpWDv7mWKAgqHZqOQuPHgouHQoUKmdtuu03yQJji559/NoMGDTJjxowxderUMV27djW///3vTa9evaTh8ZwWLVqIEHAQzihfvry4y3Tavn37mnLlysl1xK9nz55m06ZNoadFB7FAGOgQHTt2FMEgnXnz5qVaijy7Q4cO0jnatGlj/vKXv0jsm05BnuHkyZOmd+/eEl7p0qWLadasmXn//ffFVXXhhHXr1plOnTpJ5+HdyOtzzz1n5s6dm/osRK1AgQLy3pRjVrjelN3gwYPlvTNjEfshnw7SQXQRZd67YsWKplixYvJZPO++b98+0717dxEQ7rn77rtlsPj000/lc0Rm//790naBf6l3BKh69epS7rQj6mrjxo1yj8vT/PnzRfhIEwuV5/L+DPrg0nrzzTel7ZHWqVOnzOOPPy75SoR48sBAQ/tDXAnxEK6jT8WTL2dBT5gwQcKCVatWFQNEiYKtjECZOXOmN23atLCDa1mJFVjPuqye7TyhK+FYS9iz4uVZq9yzguh98cUX3n/913+FPvU86z57Tz/9tNznsFaFHA7b8TzbyT1rRYSueJ5tvJ61CMLui4S8WbH2bEeQ+8E2aO/DDz/0HnroIe/gwYNy7cSJE561bL0ff/xRzmHnzp2edUFT34u0Wrdu7dnOJudgBzlv8+bNkj9rOXu2A0naPMPBe/E9OwiErmQfdlDx7KDmWTEIy1Mk1IsdmC4oS97LWq2edb096w2l3mcHP++HH34I3eXF/e7+tuCg/ChrvhfZlqzH4NWtW9eznp2cg8uTHbilvlyeeD75cFjr1WvYsKFnB1g5J61GjRpJnTncd60ApraPSMiTFT3v1Vdf9azxEHaQd4g3D9aT8tq2bStpOuLJl/vea6+9Ju+vpI0uUUsDwhmM+LhluLXOemLyhxEeK5N/0wK3H4saqxiwTr/99ltx562Aphtjw/LA9XchA6z5GjVqSF6+/vpruYZVcc8994iFZsVA3D8mI3Gd3YQMn3GOZemuEWIhjkr+jh49Ku/Jud/9xmohv5mZoASehRtrO2GGD9x+XHes4ngsYlbBjB07NvXo0aOHmTFjhlhtfpcdL4TQhSPed8fqZwIQ997FmPkOYSv/9xy47nguWNwOyhqLEYuZNuBgJY4LYQBtjHAI9QmkhftftGhROQfagBV5mSAllp4WtFMruBJi8R+0Wz+x8hCNjOSL0EbkfIwSTuAifN1114X++g/RrmUniCsNETccEcBtJZxA56LR4p76XdC0IEZMOID4KZ0WkaFjEApIT1wIcRAn9cM5By4kIBTWa5BQCKKFSI8aNUriwi7UgHvdr18/CUEgCsQIESo36UhnWbt2rQgEwu8O8ovr7NLJKHS6ChUqSJ4yehCWwA1meV5kDDwaDDx+kaEscK8ZANMj3nevVauWuNuEpBhQKW/i8GlN+iFyCJI/5g6EcagzV/bxQFpTpkwxZcqUCctj586dpe2lJ5SIKQMZ3/cf9evXD92ReRLJl3IhgYswlocbLTn4m2tBgRW3detWmUCgM1m3U4QUEWOCjJjXRx99JNZxeiDkAwYMECuDeCSxblZfWDcudEfaINCRIs05jdvFtmfOnCliQByOuDAWCBMtzmIHBIxYH3E/BhJWgTCZ9corr4iIIBQMLHyORRl5+K25jEAerUt/wcx8rIOYK8JLOb3wwgumcuXKoRTThvL0iwyxeqz9WOId77vTJlu1aiXlxkTUww8/LIPfuHHjog5SaVl91B+Wud8ajwVpUY5M6Ebmb+TIkWEWbHaSU/P1WyVHhCMQXZbTcAQpwIzidMqDBw+KawXMHiNsTGoRAqABEkpwFmlaIMK4uy1bthRhwapmsoMJjFhgQSPafg4dOiTPxAXEomLGmUX3DAZ0bkSHdbz+fHHOu/AZKzIIXzAxiDuJW8wqAKxuLBtm0d3BO549e/YCay4rYYBhcKMT9+/fPy4BToR43h3hpL6oS66zIoZ20KlTJ1ktQv1GggfAaghCTn6wrnkeE5zxQlqs3qBs/Hkkf+CfgMxOcmq+fqtctKVFg9m2bZvE+ziwvhAoXHriii4kgkWMYLGiAZHGUmaW3c10O7D+EE5ED5FklQXXsEA5x/JMSUlJnVVPDzoqP44gdHHu3Dlp8Fi5/BIMdxsLnXwhBKySwCLjHvJOLNDBe/EuWCjkHUH5/PPPJQ1muXkO7inrXHk/BgneFSF86aWXJLSRHdCZWWLHTDrLvbJagCHed6fOnn/+eSlfyhlB/uKLL8QVd16JH9YNM+iymoZ7GbCxoidPnmyaNGkiYhUvpMW6deqetGgLeGl4ZsS90wsXRbZvdzBApPe9SBh8sN5Ji1AK7Siz+eK+119/3fz1r3/NUFgmt3PRijATXE899ZRYqhwsO6Jj4uaz2N+5s8RVH3nkEfkhAG4ulicN0FnKjvvuu086MjHEd955RywtYmQs5SEejIXPpBwdMRYIJHliqRDhGX4ujDVOXNrFihs3biyWOflAkFlaRR784Qg+Y2kRy6PchByDBO+Cy8g7srwNF5tQBetzb7/9domzMrHGe2YHlBsWaXYJMMTz7txDPTAPQB1Qzgg3okT4JDJuD5Qry9MQoho1aohYE5enDojJu3YVDy4t4Lm0BSYcq1SpIvML6Xkqke3bHYSwEMN4wcty37vzzjsl9JXZfOFZUNcMcBgmynly7f8dkWxouEzm4FJiiaYFjQx3jIZIh8NywDrFoohmOaUHFiIhhfS+S9o8g8+5Lxou74hGWukkks/fOvG8O6KBdRmr/v3EUzfx4p7PAJCRX7wlCyegvIdfZIPOV25ARVhRFCVANIKuKIoSICrCiqIoAaIirCiKEiAqwoqiKAGiIqwoihIgKsKKoigBoiKsKIoSICrCiqIoAaIirCiKEiAqwoqiKAGiIqwoihIgKsKKoigBoiKsKIoSICrCiqIogWHM/w9Y+lEXcIR37gAAAABJRU5ErkJggg==;" parent="1" vertex="1">
          <mxGeometry width="353" height="429" as="geometry" />
        </mxCell>
      </root>
    </mxGraphModel>
  </diagram>
</mxfile>
